<svg width="197" height="50" viewBox="0 0 197 50" fill="none" xmlns="http://www.w3.org/2000/svg">
<path d="M46.4309 32.4383C46.4309 33.2596 46.494 33.9229 46.6204 34.3966C46.7467 34.902 46.9362 35.3126 47.1889 35.5969C47.4416 35.8812 47.7259 36.1023 48.0733 36.197C48.4208 36.3234 48.8314 36.3549 49.3052 36.3549V37.4289H32.9122V36.3549C33.3228 36.3549 33.7335 36.2918 34.0809 36.197C34.4283 36.0707 34.7442 35.8812 34.9653 35.5969C35.218 35.3126 35.4075 34.902 35.5338 34.3966C35.6602 33.8913 35.7234 33.228 35.7234 32.4383V18.5407C35.7234 17.8142 35.6918 17.2141 35.6602 16.7403C35.6286 16.2349 35.5338 15.8559 35.3443 15.5084C35.1548 15.1926 34.9021 14.9399 34.5231 14.7504C34.1441 14.5609 33.6071 14.4345 32.9438 14.3398V13.2659H46.4309V32.4383Z" fill="#B8B8B8"/>
<path d="M40.6822 0.126465C41.4403 0.126465 42.1668 0.221222 42.8616 0.410735C43.5565 0.600249 44.1882 0.916105 44.7252 1.32672C45.2621 1.73733 45.7359 2.27429 46.0834 2.93758C46.4308 3.60088 46.5887 4.35894 46.5887 5.27492C46.5887 6.15931 46.4308 6.88578 46.0834 7.51749C45.7359 8.14921 45.2937 8.62299 44.7252 9.0336C44.1882 9.41263 43.5565 9.72849 42.8616 9.918C42.1668 10.1075 41.4719 10.2023 40.777 10.2023C40.0505 10.2023 39.3556 10.1075 38.6923 9.918C38.029 9.72849 37.4289 9.41263 36.892 9.00202C36.355 8.5914 35.9128 8.05445 35.597 7.45432C35.2811 6.82261 35.1232 6.09614 35.1232 5.21175C35.1232 4.32735 35.2811 3.5693 35.597 2.93758C35.9128 2.30587 36.355 1.8005 36.8604 1.38989C37.3657 0.979276 37.9659 0.66342 38.6292 0.473906C39.3241 0.252807 39.9874 0.126465 40.6822 0.126465Z" fill="#B8B8B8"/>
<path d="M64.8452 13.2976V16.4245C65.6032 15.1927 66.5192 14.2135 67.6247 13.5187C68.7302 12.8238 70.0884 12.4763 71.6677 12.4763C74.384 12.4447 76.3739 13.1712 77.5742 14.6557C78.7744 16.1403 79.3745 18.3512 79.3745 21.2255V33.0701C79.3745 33.3544 79.4377 33.7019 79.5325 34.0809C79.6272 34.4599 79.7852 34.8073 79.9747 35.1548C80.1642 35.5022 80.4484 35.7865 80.7643 36.0076C81.1117 36.2287 81.5224 36.355 81.9961 36.3866V37.4605H67.9721V36.3866C68.288 36.355 68.5091 36.1655 68.667 35.8181C68.7934 35.4706 68.8565 34.7126 68.8565 33.5123V20.3411C68.8565 19.362 68.6354 18.6671 68.2248 18.1933C67.8142 17.7511 67.3404 17.53 66.8666 17.5932C66.3929 17.6564 65.9191 17.9406 65.5085 18.4776C65.0979 19.0145 64.8768 19.8042 64.8768 20.8465V33.2281C64.8768 34.302 64.9715 35.06 65.161 35.5022C65.3505 35.9444 65.698 36.2603 66.2665 36.4182V37.4921H51.5792V36.4182C52.6847 36.3866 53.4112 36.0392 53.7902 35.4075C54.1692 34.7758 54.3588 33.8282 54.3588 32.5964V18.5408C54.3588 17.688 54.2956 16.9931 54.2008 16.4561C54.0745 15.9192 53.9166 15.5085 53.6955 15.2243C53.4744 14.94 53.1585 14.7189 52.8111 14.5926C52.4636 14.4662 52.053 14.3715 51.5792 14.3399V13.266H64.8452V13.2976Z" fill="#B8B8B8"/>
<path d="M96.115 25.2686C95.8939 25.2686 95.6412 25.3002 95.3885 25.3317C95.1358 25.3633 94.8831 25.4581 94.6936 25.5844C94.4725 25.7108 94.3146 25.8687 94.1567 26.0898C93.9987 26.3109 93.9356 26.5952 93.9356 26.9742V32.9123C93.9356 33.4492 94.1251 33.7967 94.5357 34.0178C94.9463 34.2389 95.2622 34.3021 95.5464 34.2705C96.0834 34.2073 96.6203 33.9546 97.1257 33.544C97.6311 33.1334 97.8838 32.4385 97.8838 31.4594V25.2686H96.115ZM97.8838 17.688C97.8838 16.6141 97.6942 15.8561 97.2836 15.4455C96.873 15.0348 96.1465 14.7822 95.0726 14.719C94.5357 14.719 93.9671 14.7506 93.3986 14.8137C92.8301 14.8769 92.451 15.0348 92.2615 15.2559C92.9248 15.9508 93.3038 16.7089 93.4934 17.5301C93.6513 18.3513 93.5881 19.141 93.3354 19.8359C93.0512 20.5623 92.5774 21.1624 91.8509 21.6362C91.1244 22.11 90.24 22.3627 89.1345 22.3627C88.0606 22.3627 87.1131 22.0153 86.3234 21.2888C85.5338 20.5623 85.1548 19.5516 85.2179 18.2566C85.2495 17.0247 85.6601 16.014 86.4813 15.2559C87.3026 14.4979 88.2501 13.8978 89.3872 13.4871C90.4927 13.0765 91.6614 12.7923 92.8616 12.6659C94.0619 12.508 95.041 12.4448 95.7991 12.4448C96.9994 12.4448 98.326 12.5396 99.7473 12.7607C101.169 12.9818 102.527 13.3608 103.759 13.9609C104.991 14.5295 106.033 15.3507 106.886 16.4246C107.707 17.4669 108.117 18.8567 108.117 20.5939V31.9647C108.117 32.628 108.244 33.0702 108.497 33.3229C108.749 33.5756 109.002 33.7019 109.318 33.7019C109.634 33.7019 109.918 33.544 110.171 33.2597C110.423 32.9755 110.581 32.628 110.613 32.1542H111.592C111.592 33.1966 111.402 34.081 111.055 34.8706C110.708 35.6287 110.202 36.2604 109.602 36.7973C108.97 37.3343 108.244 37.7133 107.423 37.9344C106.57 38.1871 105.685 38.3134 104.738 38.3134C103.38 38.3134 102.211 38.0607 101.2 37.5238C100.221 36.9868 99.4315 36.1656 98.8945 35.0285C97.789 36.1656 96.5572 36.9868 95.2306 37.5554C93.904 38.0923 92.2931 38.345 90.4611 38.3134C89.5452 38.3134 88.6608 38.1555 87.8395 37.8712C86.9867 37.587 86.2603 37.1448 85.597 36.5762C84.9337 36.0077 84.4283 35.3128 84.0493 34.4916C83.6702 33.6703 83.4807 32.7228 83.4807 31.6489C83.4807 29.7537 83.9545 28.2692 84.9337 27.1637C85.8812 26.0582 87.0815 25.2054 88.5028 24.6053C89.9242 24.0052 91.5035 23.6261 93.2091 23.4366C94.9147 23.2471 96.5256 23.1523 98.0101 23.1208V17.688H97.8838Z" fill="#B8B8B8"/>
<path d="M125.016 13.2976V16.4245C125.774 15.1927 126.69 14.2135 127.795 13.5187C128.901 12.8238 130.259 12.4763 131.838 12.4763C134.555 12.4447 136.545 13.1712 137.745 14.6557C138.945 16.1403 139.545 18.3512 139.545 21.2255V33.0701C139.545 33.3544 139.608 33.7019 139.703 34.0809C139.798 34.4599 139.956 34.8073 140.145 35.1548C140.335 35.5022 140.619 35.7865 140.935 36.0076C141.282 36.2287 141.693 36.355 142.167 36.3866V37.4605H128.143V36.3866C128.459 36.355 128.68 36.1655 128.838 35.8181C128.964 35.4706 129.027 34.7126 129.027 33.5123V20.3411C129.027 19.362 128.806 18.6671 128.395 18.1933C127.985 17.7511 127.511 17.53 127.037 17.5932C126.532 17.6564 126.09 17.9406 125.679 18.4776C125.269 19.0145 125.047 19.8042 125.047 20.8465V33.2281C125.047 34.302 125.142 35.06 125.332 35.5022C125.521 35.9444 125.869 36.2603 126.437 36.4182V37.4921H111.75V36.4182C112.855 36.3866 113.582 36.0392 113.961 35.4075C114.34 34.7758 114.529 33.8282 114.529 32.5964V18.5408C114.529 17.688 114.466 16.9931 114.371 16.4561C114.245 15.9192 114.087 15.5085 113.866 15.2243C113.645 14.94 113.329 14.7189 112.982 14.5926C112.634 14.4662 112.224 14.3715 111.75 14.3399V13.266H125.016V13.2976Z" fill="#B8B8B8"/>
<path d="M168.225 30.1643C166.867 32.8174 165.193 34.8389 163.234 36.1971C161.276 37.5553 158.749 38.2502 155.654 38.2817C153.79 38.2817 152.053 37.9975 150.442 37.3974C148.831 36.7972 147.41 35.976 146.178 34.8705C144.946 33.765 143.999 32.4068 143.272 30.8275C142.546 29.2483 142.198 27.4795 142.198 25.5212C142.198 23.5629 142.577 21.7941 143.304 20.2148C144.03 18.6355 145.041 17.2457 146.304 16.1087C147.568 14.94 149.052 14.0556 150.726 13.4239C152.432 12.7922 154.232 12.4763 156.128 12.4763C156.886 12.4763 157.675 12.5079 158.528 12.5395C159.381 12.6027 160.265 12.729 161.15 12.9501C162.034 13.1712 162.855 13.4871 163.645 13.8661C164.435 14.2451 165.129 14.7189 165.73 15.2559C166.33 15.7928 166.804 16.4245 167.183 17.1194C167.53 17.8459 167.72 18.6355 167.72 19.5199C167.72 20.2464 167.593 20.8781 167.34 21.3835C167.088 21.9204 166.74 22.3626 166.298 22.7416C165.856 23.1207 165.351 23.3733 164.814 23.5629C164.245 23.7524 163.677 23.8155 163.108 23.8155C162.255 23.8155 161.497 23.5944 160.771 23.1838C160.044 22.7732 159.539 22.1731 159.223 21.415C159.033 21.0044 158.907 20.5306 158.876 20.0884C158.844 19.6147 158.907 19.1409 159.033 18.6671C159.16 18.1933 159.381 17.7827 159.634 17.3721C159.918 16.9931 160.265 16.6456 160.676 16.3929C160.613 15.8876 160.265 15.4769 159.665 15.1611C159.065 14.8768 158.402 14.6873 157.707 14.6241C156.98 14.561 156.349 14.5926 155.749 14.7821C155.148 14.94 154.864 15.2243 154.864 15.6033V32.849C154.864 33.1333 154.959 33.386 155.18 33.6387C155.401 33.8598 155.654 34.0493 155.97 34.2072C156.286 34.3651 156.633 34.4599 156.98 34.5546C157.359 34.6494 157.707 34.681 158.086 34.681C159.381 34.681 160.581 34.4283 161.655 33.9545C162.729 33.4807 163.677 32.9122 164.466 32.2805C165.256 31.6488 165.888 31.0486 166.33 30.4801C166.804 29.9116 167.088 29.5325 167.183 29.343L168.225 30.1643Z" fill="#B8B8B8"/>
<path d="M186.26 23.8787V15.8244C186.26 15.4454 186.039 15.1611 185.628 14.9716C185.218 14.7821 184.776 14.6873 184.302 14.6873C183.86 14.6873 183.386 14.7821 182.944 14.9716C182.501 15.1611 182.28 15.4454 182.28 15.8244V23.8787H186.26ZM182.312 26.1213V32.5963C182.312 32.9438 182.407 33.2596 182.628 33.4807C182.849 33.7334 183.102 33.9229 183.417 34.0809C183.733 34.2388 184.081 34.3651 184.46 34.4599C184.839 34.5546 185.249 34.5862 185.628 34.6494C187.492 34.7757 189.229 34.3651 190.903 33.3544C192.577 32.3752 194.093 31.0486 195.452 29.3746L196.557 30.1643C195.199 32.7859 193.493 34.8073 191.44 36.1971C189.387 37.5869 187.018 38.2817 184.27 38.2817C182.312 38.2817 180.48 37.9975 178.774 37.4605C177.069 36.9236 175.584 36.1023 174.352 35.0284C173.089 33.9545 172.11 32.6279 171.383 31.0171C170.657 29.4378 170.278 27.5742 170.278 25.458C170.278 23.4997 170.657 21.7309 171.383 20.1516C172.11 18.5723 173.089 17.1826 174.321 16.0455C175.553 14.8768 177.006 13.9924 178.68 13.3923C180.354 12.7606 182.122 12.4763 184.018 12.4763C185.976 12.4763 187.713 12.8238 189.261 13.4871C190.808 14.1819 192.135 15.1295 193.209 16.3298C194.283 17.5616 195.136 18.983 195.704 20.657C196.273 22.2994 196.557 24.1314 196.557 26.1213H182.312Z" fill="#B8B8B8"/>
<path d="M135.534 49.2735C135.692 49.2735 135.85 49.2419 135.976 49.1787C136.102 49.1471 136.229 49.0524 136.292 48.926C136.387 48.7997 136.45 48.6733 136.481 48.4838C136.513 48.2943 136.545 48.0416 136.545 47.7574V42.7984C136.545 42.5457 136.545 42.2931 136.513 42.1035C136.481 41.914 136.45 41.7245 136.387 41.5982C136.323 41.4718 136.229 41.3455 136.071 41.2823C135.944 41.2191 135.755 41.156 135.502 41.1244V40.7454H140.493V42.3246C140.619 42.072 140.745 41.8509 140.903 41.6298C141.061 41.4087 141.251 41.2191 141.44 41.0612C141.661 40.9033 141.882 40.7454 142.135 40.6506C142.388 40.5558 142.672 40.4927 142.988 40.4927C143.588 40.4927 144.093 40.6822 144.473 41.0296C144.852 41.4087 145.009 41.9456 145.009 42.6721C145.009 43.209 144.82 43.6512 144.504 43.9671C144.188 44.2829 143.746 44.4409 143.146 44.4409C142.893 44.4409 142.641 44.4093 142.451 44.3145C142.262 44.2198 142.072 44.0934 141.946 43.9355C141.819 43.7776 141.693 43.5881 141.63 43.3985C141.567 43.1774 141.535 42.9564 141.535 42.7353C141.535 42.6405 141.503 42.6089 141.44 42.6089C141.314 42.6089 141.219 42.6405 141.124 42.7353C141.03 42.83 140.935 42.9248 140.84 43.0511C140.745 43.1775 140.682 43.3354 140.619 43.4933C140.556 43.6512 140.524 43.8092 140.493 43.9671V47.3467C140.493 47.6626 140.493 47.9153 140.524 48.168C140.556 48.3891 140.587 48.5786 140.682 48.7365C140.745 48.8944 140.872 49.0208 140.998 49.084C141.124 49.1787 141.314 49.2103 141.535 49.2419V49.6525H135.502V49.2735H135.534Z" fill="black" fill-opacity="0.4"/>
<path d="M151.105 44.6621V41.693C151.105 41.5351 151.042 41.4403 150.884 41.3772C150.726 41.314 150.569 41.2824 150.411 41.2824C150.253 41.2824 150.095 41.314 149.905 41.3772C149.747 41.4403 149.653 41.5351 149.653 41.693V44.6621H151.105ZM149.653 45.4833V47.8838C149.653 48.0101 149.684 48.1365 149.779 48.2312C149.842 48.326 149.937 48.3892 150.063 48.4523C150.189 48.5155 150.316 48.5471 150.442 48.5787C150.6 48.6103 150.726 48.6418 150.884 48.6418C151.579 48.705 152.211 48.5155 152.843 48.1681C153.474 47.789 154.011 47.3152 154.517 46.7151L154.927 46.9994C154.422 47.9785 153.79 48.705 153.032 49.242C152.274 49.7473 151.39 50 150.379 50C149.653 50 148.989 49.9053 148.358 49.6842C147.726 49.4947 147.189 49.1788 146.715 48.7998C146.241 48.3892 145.894 47.9154 145.61 47.3153C145.325 46.7151 145.199 46.0518 145.199 45.2622C145.199 44.5357 145.325 43.904 145.61 43.3039C145.894 42.7038 146.241 42.1984 146.683 41.7878C147.126 41.3772 147.694 41.0297 148.294 40.8086C148.926 40.5875 149.558 40.4612 150.253 40.4612C150.979 40.4612 151.611 40.5875 152.179 40.8402C152.748 41.0929 153.222 41.4403 153.632 41.8825C154.043 42.3247 154.327 42.8617 154.548 43.4618C154.769 44.0619 154.864 44.7568 154.864 45.4833H149.653Z" fill="black" fill-opacity="0.4"/>
<path d="M154.454 40.7454H160.518V41.156C160.076 41.156 159.823 41.2823 159.76 41.5034C159.665 41.7245 159.697 42.0088 159.792 42.2931L161.276 46.4939L162.476 42.9564C162.603 42.5142 162.666 42.1983 162.634 41.9456C162.603 41.6929 162.54 41.535 162.413 41.4087C162.318 41.2823 162.16 41.2191 162.003 41.1876C161.845 41.156 161.718 41.156 161.592 41.156V40.7454H165.161V41.156C164.845 41.1876 164.593 41.3139 164.435 41.5034C164.245 41.6929 164.119 41.914 164.024 42.1983L161.402 49.6841H158.37L155.843 42.9564C155.654 42.3878 155.433 41.9456 155.243 41.6298C155.054 41.3455 154.769 41.156 154.422 41.156V40.7454H154.454Z" fill="black" fill-opacity="0.4"/>
<path d="M168.635 36.4182C168.92 36.4182 169.172 36.4498 169.425 36.513C169.678 36.5761 169.899 36.7025 170.12 36.8604C170.309 37.0183 170.499 37.2079 170.625 37.4605C170.752 37.7132 170.815 37.9975 170.815 38.3133C170.815 38.6292 170.752 38.9135 170.625 39.1346C170.499 39.3557 170.341 39.5452 170.12 39.7031C169.93 39.861 169.678 39.9558 169.425 40.019C169.172 40.0821 168.92 40.1137 168.667 40.1137C168.414 40.1137 168.13 40.0821 167.909 40.019C167.656 39.9558 167.435 39.8295 167.246 39.6715C167.056 39.5136 166.898 39.3241 166.772 39.103C166.646 38.8819 166.582 38.5976 166.582 38.2818C166.582 37.9659 166.646 37.6816 166.772 37.4605C166.898 37.2394 167.056 37.0499 167.246 36.892C167.435 36.7341 167.656 36.6393 167.909 36.5446C168.13 36.4498 168.383 36.4182 168.635 36.4182ZM170.783 47.8206C170.783 48.1049 170.815 48.3576 170.846 48.5471C170.91 48.7366 170.973 48.8629 171.067 48.9893C171.162 49.084 171.257 49.1788 171.383 49.2104C171.51 49.242 171.668 49.2735 171.826 49.2735V49.6842H165.793V49.2735C165.951 49.2735 166.077 49.242 166.235 49.2104C166.361 49.1788 166.488 49.084 166.551 48.9893C166.646 48.8945 166.709 48.7366 166.772 48.5471C166.835 48.3576 166.835 48.1049 166.835 47.8206V42.7037C166.835 42.4511 166.835 42.23 166.803 42.0404C166.803 41.8509 166.74 41.7246 166.677 41.5982C166.614 41.4719 166.519 41.3772 166.361 41.314C166.235 41.2508 166.014 41.1876 165.761 41.1561V40.7454H170.72V47.8206H170.783Z" fill="black" fill-opacity="0.4"/>
<path d="M177.543 44.6621V41.693C177.543 41.5351 177.48 41.4403 177.322 41.3772C177.164 41.314 177.006 41.2824 176.848 41.2824C176.69 41.2824 176.532 41.314 176.342 41.3772C176.185 41.4403 176.09 41.5351 176.09 41.693V44.6621H177.543ZM176.09 45.4833V47.8838C176.09 48.0101 176.121 48.1365 176.216 48.2312C176.279 48.326 176.374 48.3892 176.5 48.4523C176.627 48.5155 176.753 48.5471 176.879 48.5787C177.037 48.6103 177.164 48.6418 177.322 48.6418C178.017 48.705 178.648 48.5155 179.28 48.1681C179.912 47.789 180.449 47.3152 180.954 46.7151L181.365 46.9994C180.859 47.9785 180.228 48.705 179.469 49.242C178.711 49.7473 177.827 50 176.816 50C176.09 50 175.427 49.9053 174.795 49.6842C174.163 49.4947 173.626 49.1788 173.152 48.7998C172.679 48.3892 172.331 47.9154 172.047 47.3153C171.763 46.7151 171.636 46.0518 171.636 45.2622C171.636 44.5357 171.763 43.904 172.047 43.3039C172.331 42.7038 172.679 42.1984 173.152 41.7878C173.595 41.3772 174.131 41.0297 174.763 40.8086C175.395 40.5875 176.027 40.4612 176.722 40.4612C177.448 40.4612 178.08 40.5875 178.648 40.8402C179.217 41.0929 179.691 41.4403 180.101 41.8825C180.512 42.3247 180.796 42.8617 181.017 43.4618C181.238 44.0619 181.333 44.7568 181.333 45.4833H176.09Z" fill="black" fill-opacity="0.4"/>
<path d="M192.356 40.7454V41.156C191.914 41.156 191.661 41.2823 191.598 41.5034C191.503 41.7245 191.535 42.0088 191.63 42.2931L193.02 46.3992L194.315 42.9564C194.472 42.5457 194.567 42.1983 194.536 41.9456C194.504 41.6929 194.441 41.5034 194.315 41.4087C194.188 41.2823 194.062 41.2191 193.904 41.1876C193.746 41.156 193.62 41.156 193.493 41.156V40.7454H196.999V41.156C196.715 41.1876 196.462 41.3139 196.273 41.5034C196.083 41.6929 195.925 41.914 195.831 42.1983L193.114 49.6841H190.145L188.787 45.5464L187.397 49.6841H184.365L181.933 42.9564C181.743 42.3878 181.522 41.9456 181.364 41.6613C181.175 41.3455 180.922 41.1876 180.543 41.156V40.7454H185.976V41.156C185.786 41.156 185.723 41.2823 185.723 41.5034C185.723 41.7245 185.786 42.0088 185.881 42.2931L187.145 46.3676L188.345 42.5457C188.471 42.1983 188.44 41.8509 188.282 41.5666C188.124 41.2823 187.839 41.1244 187.366 41.1244V40.7454H192.356Z" fill="black" fill-opacity="0.4"/>
<path d="M57.8016 7.8964C57.5489 8.21226 57.1699 8.46494 56.6961 8.71763C56.1907 8.93873 55.5906 9.06507 54.8641 9.06507C53.9166 9.06507 53.1585 8.7808 52.59 8.21226C51.9898 7.64372 51.7056 6.88566 51.7056 5.96968V4.3904C51.7056 3.47442 51.9898 2.71637 52.5584 2.14782C53.1269 1.57928 53.8534 1.26343 54.7694 1.26343C55.7485 1.26343 56.475 1.48453 56.9488 1.92673C57.4226 2.36892 57.7068 3.00064 57.77 3.79028V3.82186H56.1276C56.0644 3.41125 55.938 3.12698 55.7485 2.90588C55.559 2.71636 55.2432 2.59002 54.8325 2.59002C54.4219 2.59002 54.1061 2.74795 53.8534 3.06381C53.6007 3.37966 53.4744 3.82186 53.4744 4.32723V5.9381C53.4744 6.47505 53.6007 6.88566 53.8534 7.20152C54.1061 7.51738 54.4535 7.6753 54.8957 7.6753C55.2116 7.6753 55.4643 7.64372 55.6538 7.61213C55.8433 7.54896 55.9696 7.48579 56.096 7.39103V6.19078H54.8957V5.0537H57.8648V7.8964H57.8016Z" fill="black" fill-opacity="0.4"/>
<path d="M61.0865 7.6121H64.3399V8.9387H59.3177V1.35815H61.0865V7.6121Z" fill="black" fill-opacity="0.4"/>
<path d="M69.9304 4.45357C69.9304 3.91662 69.8041 3.47442 69.5514 3.12698C69.2987 2.77954 68.9197 2.59002 68.4775 2.59002C68.0037 2.59002 67.6247 2.77954 67.372 3.09539C67.1193 3.44283 66.9929 3.88503 66.9929 4.42199V5.81175C66.9929 6.34871 67.1193 6.82249 67.372 7.16993C67.6247 7.51738 68.0037 7.70689 68.4775 7.70689C68.9513 7.70689 69.2987 7.51738 69.5514 7.16993C69.8041 6.82249 69.9304 6.38029 69.9304 5.81175V4.45357ZM71.6992 5.84334C71.6992 6.79091 71.4149 7.54896 70.8148 8.14909C70.2147 8.74921 69.4566 9.06507 68.4775 9.06507C67.4983 9.06507 66.7403 8.74921 66.1401 8.14909C65.54 7.54896 65.2557 6.75932 65.2557 5.84334V4.48516C65.2557 3.53759 65.54 2.77954 66.1401 2.17941C66.7403 1.57928 67.5299 1.26343 68.4775 1.26343C69.425 1.26343 70.2147 1.57928 70.8148 2.17941C71.4149 2.77954 71.6992 3.56918 71.6992 4.48516V5.84334Z" fill="black" fill-opacity="0.4"/>
<path d="M74.7 5.68538V7.58052H75.9318C76.3108 7.58052 76.5951 7.51735 76.7846 7.35942C76.9741 7.20149 77.0689 6.98039 77.0689 6.66454C77.0689 6.34868 76.9741 6.09599 76.8162 5.90648C76.6583 5.74855 76.4056 5.6538 76.0265 5.6538H74.7V5.68538ZM74.7 4.51671H75.5843C75.995 4.51671 76.2792 4.42196 76.4687 4.29562C76.6583 4.13769 76.753 3.91659 76.753 3.63232C76.753 3.31646 76.6583 3.06378 76.4372 2.93743C76.2476 2.77951 75.9318 2.71634 75.5212 2.71634H74.6684V4.51671H74.7ZM72.9312 8.97028V1.35815H75.5528C76.5003 1.35815 77.2268 1.54767 77.7638 1.89511C78.3007 2.24255 78.5534 2.77951 78.5534 3.4428C78.5534 3.79025 78.4586 4.13769 78.3007 4.42196C78.1428 4.70623 77.8585 4.92733 77.5111 5.05367C77.9533 5.14843 78.2691 5.36953 78.4902 5.6538C78.7113 5.96965 78.8061 6.31709 78.8061 6.69612C78.8061 7.42259 78.5534 7.99113 78.048 8.37016C77.5427 8.74919 76.8478 8.9387 75.9002 8.9387H72.9312V8.97028Z" fill="black" fill-opacity="0.4"/>
<path d="M82.0594 6.12773H83.6702L82.8806 3.41137H82.849L82.0594 6.12773ZM84.0493 7.48591H81.6488L81.2382 8.97044H79.4694L81.933 1.38989H83.8282L86.2918 8.97044H84.5231L84.0493 7.48591Z" fill="black" fill-opacity="0.4"/>
<path d="M89.1977 7.6121H92.4826V8.9387H87.429V1.35815H89.1977V7.6121Z" fill="black" fill-opacity="0.4"/>
<path d="M100.158 5.68538V7.58052H101.39C101.769 7.58052 102.053 7.51735 102.243 7.35942C102.432 7.20149 102.527 6.98039 102.527 6.66454C102.527 6.34868 102.464 6.09599 102.274 5.90648C102.116 5.74855 101.864 5.6538 101.485 5.6538H100.158V5.68538ZM100.158 4.51671H101.042C101.453 4.51671 101.737 4.42196 101.927 4.29562C102.116 4.13769 102.211 3.91659 102.211 3.63232C102.211 3.31646 102.116 3.06378 101.895 2.93743C101.706 2.77951 101.39 2.71634 100.979 2.71634H100.126V4.51671H100.158ZM98.3892 8.97028V1.35815H101.011C101.958 1.35815 102.685 1.54767 103.222 1.89511C103.759 2.24255 104.011 2.77951 104.011 3.4428C104.011 3.79025 103.917 4.13769 103.759 4.42196C103.601 4.70623 103.317 4.92733 102.969 5.05367C103.411 5.14843 103.727 5.36953 103.948 5.6538C104.169 5.96965 104.264 6.31709 104.264 6.69612C104.264 7.42259 104.011 7.99113 103.506 8.37016C103.001 8.74919 102.306 8.9387 101.358 8.9387H98.3892V8.97028Z" fill="black" fill-opacity="0.4"/>
<path d="M107.517 6.12773H109.128L108.339 3.41137H108.307L107.517 6.12773ZM109.507 7.48591H107.107L106.696 8.97044H104.927L107.391 1.38989H109.286L111.75 8.97044H109.981L109.507 7.48591Z" fill="black" fill-opacity="0.4"/>
<path d="M119.236 8.97028H117.467L114.687 4.1061L114.656 4.13769V8.97028H112.887V1.35815H114.656L117.435 6.19075H117.467V1.35815H119.236V8.97028Z" fill="black" fill-opacity="0.4"/>
<path d="M123.658 5.90648H122.836V8.9387H121.068V1.35815H122.836V4.3272H123.436L125.11 1.35815H127.29L124.953 4.80098L127.511 8.9387H125.332L123.658 5.90648Z" fill="black" fill-opacity="0.4"/>
<path d="M130.512 1.35815H128.743V8.97028H130.512V1.35815Z" fill="black" fill-opacity="0.4"/>
<path d="M138.787 8.97028H137.018L134.239 4.1061L134.207 4.13769V8.97028H132.438V1.35815H134.207L136.987 6.19075H137.018V1.35815H138.787V8.97028Z" fill="black" fill-opacity="0.4"/>
<path d="M146.62 7.8964C146.368 8.21226 145.989 8.46494 145.515 8.71763C145.01 8.93873 144.409 9.06507 143.683 9.06507C142.735 9.06507 141.977 8.7808 141.409 8.21226C140.809 7.64372 140.524 6.88566 140.524 5.96968V4.3904C140.524 3.47442 140.809 2.71637 141.377 2.14782C141.946 1.57928 142.704 1.26343 143.588 1.26343C144.567 1.26343 145.294 1.48453 145.768 1.92673C146.241 2.36892 146.526 3.00064 146.589 3.79028V3.82186H144.946C144.883 3.41125 144.757 3.12698 144.567 2.90588C144.378 2.71636 144.062 2.59002 143.651 2.59002C143.241 2.59002 142.893 2.74795 142.672 3.06381C142.42 3.37966 142.293 3.82186 142.293 4.32723V5.9381C142.293 6.47505 142.42 6.88566 142.672 7.20152C142.925 7.51738 143.272 7.6753 143.715 7.6753C144.03 7.6753 144.283 7.64372 144.473 7.61213C144.662 7.54896 144.788 7.48579 144.915 7.39103V6.19078H143.715V5.0537H146.684V7.8964H146.62Z" fill="black" fill-opacity="0.4"/>
<path d="M153.948 3.28491C153.948 3.41125 153.98 3.56918 154.043 3.69552C154.106 3.85345 154.201 3.97979 154.327 4.1693L154.643 3.97979C154.833 3.85345 154.959 3.7271 155.022 3.60076C155.085 3.47442 155.117 3.34808 155.117 3.22173C155.117 3.06381 155.054 2.93746 154.959 2.81112C154.864 2.68478 154.706 2.62161 154.548 2.62161C154.359 2.62161 154.201 2.68478 154.075 2.81112C153.98 2.93746 153.948 3.09539 153.948 3.28491ZM154.359 7.70689C154.517 7.70689 154.643 7.6753 154.801 7.64372C154.959 7.61213 155.085 7.54896 155.243 7.48579L153.854 5.90651L153.79 5.9381C153.696 6.06444 153.601 6.19078 153.569 6.31712C153.538 6.44347 153.506 6.60139 153.506 6.75932C153.506 7.01201 153.601 7.23311 153.759 7.42262C153.917 7.61213 154.106 7.70689 154.359 7.70689ZM153.064 4.95894C152.843 4.64309 152.685 4.35882 152.559 4.10613C152.432 3.85345 152.401 3.56918 152.401 3.31649C152.401 2.71637 152.59 2.211 153.001 1.83197C153.411 1.45294 153.917 1.26343 154.548 1.26343C155.117 1.26343 155.559 1.45294 155.907 1.80038C156.254 2.14782 156.412 2.59002 156.412 3.09539C156.412 3.44283 156.349 3.75869 156.191 4.04296C156.033 4.32723 155.812 4.57992 155.559 4.76943L155.117 5.08529L156.38 6.53822C156.507 6.34871 156.601 6.12761 156.665 5.90651C156.728 5.68541 156.759 5.43273 156.759 5.18004H157.991C157.991 5.68541 157.928 6.12761 157.833 6.53822C157.739 6.94884 157.549 7.32786 157.296 7.64372L158.433 8.97031V9.0019H156.507L156.128 8.5597C155.812 8.74921 155.528 8.87556 155.212 8.97031C154.927 9.06507 154.58 9.09666 154.201 9.09666C153.443 9.09666 152.843 8.90714 152.401 8.49653C151.958 8.08592 151.737 7.58055 151.737 6.94884C151.737 6.53822 151.832 6.19078 152.053 5.90651C152.274 5.59065 152.622 5.30638 153.064 4.95894Z" fill="black" fill-opacity="0.4"/>
<path d="M30.5433 0V14.3399H28.585C28.427 12.8238 28.0164 11.3708 27.3847 9.94946C26.753 8.52811 25.9634 7.26469 24.9526 6.12761C23.9419 5.02211 22.71 4.10613 21.2887 3.41124C19.8673 2.71636 18.2565 2.36892 16.4245 2.36892V17.4037C17.53 17.4037 18.4776 17.1826 19.2988 16.772C20.0884 16.3613 20.7833 15.8244 21.3203 15.1295C21.8572 14.4346 22.2678 13.645 22.5521 12.6974C22.8364 11.7814 23.0259 10.8023 23.0891 9.75995H24.542V28.4586H23.0891C22.9627 26.8162 22.6469 25.4264 22.1731 24.3209C21.6993 23.2154 21.1308 22.2994 20.4675 21.573C19.8042 20.8781 19.1409 20.3411 18.4144 19.9621C17.6879 19.6147 17.0562 19.362 16.4561 19.2672V31.9015C16.4561 32.7227 16.5824 33.4176 16.8351 33.9545C17.0878 34.4915 17.4353 34.9653 17.8143 35.3127C18.2249 35.6601 18.6355 35.9128 19.1093 36.0708C19.5831 36.2287 19.9937 36.2919 20.3727 36.2919V37.4289H0V36.3234C0.379027 36.3234 0.78964 36.2287 1.23184 36.0708C1.67404 35.9128 2.08465 35.6286 2.49526 35.2811C2.90587 34.9337 3.22173 34.4599 3.47442 33.8913C3.7271 33.3228 3.85344 32.6279 3.85344 31.8067V5.59065C3.85344 4.76943 3.7271 4.07454 3.47442 3.53759C3.22173 2.96905 2.90587 2.52685 2.49526 2.17941C2.08465 1.86355 1.67404 1.61087 1.23184 1.42135C0.78964 1.26342 0.379027 1.16867 0 1.13708V0H30.5433Z" fill="#B8B8B8"/>
</svg>
