<svg width="185" height="34" viewBox="0 0 185 34" fill="none" xmlns="http://www.w3.org/2000/svg">
<path d="M0 0.00012207H13.5C16.0714 0.00012207 18 0.64298 19.4286 1.71441C21 3.00012 21.8571 4.85727 21.8571 7.14298C21.8571 9.78584 20.7857 11.4287 18.6429 12.4287V12.5716C21.5 13.5001 23.1429 16.0716 23.1429 19.143C23.1429 22.0716 22 24.3573 20.1429 25.7858C18.5714 26.9287 16.5714 27.4287 13.8571 27.4287H0V0.00012207ZM12.1429 10.7144C13.5714 10.7144 14.6429 9.92869 14.6429 8.28584C14.6429 6.71441 13.5714 5.92869 12.0714 5.92869H7.42857V10.643H12.1429V10.7144ZM12.7857 21.3573C14.4286 21.3573 15.6429 20.3573 15.6429 18.5716C15.6429 16.643 14.3571 15.7858 12.7857 15.7858H7.5V21.4287H12.7857V21.3573Z" fill="#B8B8B8"/>
<path d="M24.3562 0.00012207H31.4276V27.5001H24.3562V0.00012207Z" fill="#B8B8B8"/>
<path d="M32.8562 17.7145C32.8562 11.5002 36.8562 7.35738 43.0705 7.35738C49.2847 7.35738 53.2133 11.5717 53.2133 17.7145C53.2133 23.9288 49.2847 28.0717 43.0705 28.0717C36.8562 28.0717 32.8562 23.9288 32.8562 17.7145ZM46.1419 17.7145C46.1419 14.286 45.0705 12.1431 42.9276 12.1431C40.7848 12.1431 39.7847 14.286 39.7847 17.7145C39.7847 21.1431 40.7848 23.3574 42.9276 23.3574C45.0705 23.286 46.1419 21.1431 46.1419 17.7145Z" fill="#B8B8B8"/>
<path d="M53.9997 17.7145C53.9997 11.5002 57.9997 7.35738 64.214 7.35738C70.4282 7.35738 74.2854 11.5002 74.2854 17.7145C74.2854 23.9288 70.3568 28.0717 64.1425 28.0717C57.9997 28.0717 53.9997 23.9288 53.9997 17.7145ZM67.2854 17.7145C67.2854 14.286 66.214 12.1431 64.0711 12.1431C61.9282 12.1431 60.9283 14.286 60.9283 17.7145C60.9283 21.1431 61.9282 23.3574 64.0711 23.3574C66.214 23.286 67.2854 21.1431 67.2854 17.7145Z" fill="#B8B8B8"/>
<path d="M75.7142 7.85743H82.2857V10.786H82.4285C83.7142 8.50029 85.5 7.286 88.3571 7.286C90.8571 7.286 92.7142 8.50029 93.6428 10.6431H93.7857C95.3571 8.07171 97.4285 7.286 99.8571 7.286C104.429 7.286 106.357 10.6431 106.357 15.1431V27.4289H99.5V16.3574C99.5 14.3574 98.8571 13.0717 97.1428 13.0717C95.4285 13.0717 94.5714 14.6431 94.5714 16.786V27.4289H87.7142V16.3574C87.7142 14.3574 87.0714 13.0717 85.3571 13.0717C83.6428 13.0717 82.7857 14.6431 82.7857 16.786V27.4289H75.7142V7.85743Z" fill="#B8B8B8"/>
<path d="M115 24.8573H114.929V27.4287H108.358V0.00012207H115.215V9.85727H115.358C116.643 8.14298 118.429 7.21441 120.929 7.21441C125.858 7.21441 128.715 11.643 128.715 17.5716C128.715 24.2144 125.643 28.0716 120.5 28.0716C118.358 28.0716 116.143 27.0716 115 24.8573ZM121.643 17.5001C121.643 14.3573 120.5 12.2858 118.429 12.2858C116.286 12.2858 115 14.3573 115 17.5001C115 20.643 116.358 22.7144 118.429 22.7144C120.5 22.7144 121.643 20.7144 121.643 17.5001Z" fill="#B8B8B8"/>
<path d="M129.499 17.6431C129.499 11.5003 133.57 7.286 139.427 7.286C142.356 7.286 144.57 8.21457 146.284 9.85743C148.57 12.0717 149.57 15.5003 149.499 19.5003H136.356C136.641 21.9289 137.784 23.2146 139.856 23.2146C141.07 23.2146 142.141 22.6431 142.57 21.3574H149.213C148.07 25.8574 144.57 28.0717 139.641 28.0717C133.57 28.0003 129.499 23.8574 129.499 17.6431ZM136.356 15.5717H142.641C142.499 13.2146 141.213 12.0003 139.57 12.0003C137.641 11.9289 136.57 13.286 136.356 15.5717Z" fill="#B8B8B8"/>
<path d="M157.286 11.2145H157.429C158.857 8.5002 160.714 7.42877 163.072 7.42877C163.643 7.42877 164 7.5002 164.214 7.64305V13.6431H164.072C160 12.9288 157.643 14.8573 157.643 19.2859V27.5002H150.714V7.85734H157.286V11.2145Z" fill="#B8B8B8"/>
<path d="M164.929 27.5001H171.571C171.857 28.3572 172.714 29.1429 174.357 29.1429C176.571 29.1429 177.357 27.7858 177.357 25.7143V24.2858H177.214C176.143 25.5715 174.643 26.5001 172.5 26.5001C168.286 26.5001 164.571 23.3572 164.571 17.2143C164.571 11.5715 167.571 7.21435 172.143 7.21435C174.786 7.21435 176.357 8.28578 177.429 9.92864H177.571V7.78578H184.143V24.7858C184.143 27.9286 183.071 30.3572 181.429 31.7858C179.714 33.2858 177.286 33.9286 174.5 33.9286C169.214 34.0001 165.571 31.8572 164.929 27.5001ZM177.643 16.9286C177.643 14.5001 176.5 12.5001 174.5 12.5001C172.571 12.5001 171.357 14.2143 171.357 16.9286C171.357 19.5715 172.571 21.4286 174.5 21.4286C176.429 21.4286 177.643 19.5001 177.643 16.9286Z" fill="#B8B8B8"/>
</svg>
