<svg xmlns="http://www.w3.org/2000/svg" xmlns:xlink="http://www.w3.org/1999/xlink"><defs><clipPath id="clip0_103_430"><path fill="#fff" d="M0 0h24v18H0z"/></clipPath><clipPath id="clip0_103_373"><path fill="#fff" transform="translate(0 .5)" d="M0 0h200v35H0z"/></clipPath></defs><symbol id="award" viewBox="0 0 102 96"><path fill-rule="evenodd" clip-rule="evenodd" d="M32.107 78.767a7.56 7.56 0 01.12-5.497 7.537 7.537 0 013.633 4.129 7.56 7.56 0 01-.12 5.497 7.603 7.603 0 01-3.633-4.13zm-2.496 5.402a7.555 7.555 0 00-4.12 3.633 7.495 7.495 0 005.488.12 7.552 7.552 0 004.12-3.633 7.494 7.494 0 00-5.488-.12zm-3.271-9.147a7.487 7.487 0 011.068-5.394 7.52 7.52 0 012.855 4.693 7.487 7.487 0 01-1.069 5.394 7.507 7.507 0 01-2.855-4.693zm-3.412 4.872a7.546 7.546 0 00-4.684 2.873 7.498 7.498 0 005.385 1.068 7.524 7.524 0 004.685-2.872 7.627 7.627 0 00-5.386-1.069zm-1.633-9.574a7.494 7.494 0 011.984-5.12 7.483 7.483 0 012.009 5.12 7.525 7.525 0 01-1.992 5.12 7.532 7.532 0 01-2-5.12zm-4.206 4.215a7.553 7.553 0 00-5.103 2.009 7.519 7.519 0 005.112 1.991c1.966 0 3.77-.76 5.112-2.008a7.541 7.541 0 00-5.12-1.992zm.041-9.72a7.52 7.52 0 012.839-4.702 7.539 7.539 0 011.094 5.394 7.53 7.53 0 01-2.846 4.702 7.622 7.622 0 01-1.086-5.394zm-4.863 3.428a7.472 7.472 0 00-5.386 1.085 7.496 7.496 0 004.693 2.847 7.471 7.471 0 005.386-1.086 7.45 7.45 0 00-4.693-2.846zM14 58.668a7.577 7.577 0 013.608-4.137 7.56 7.56 0 01.145 5.497 7.591 7.591 0 01-3.616 4.137A7.514 7.514 0 0114 58.668zm-5.385 2.53a7.493 7.493 0 00-5.488.138 7.555 7.555 0 004.129 3.624 7.493 7.493 0 005.488-.137 7.494 7.494 0 00-4.13-3.624zm3.36-9.121a7.584 7.584 0 014.274-3.445 7.507 7.507 0 01-.812 5.437 7.54 7.54 0 01-4.283 3.445 7.512 7.512 0 01.82-5.437zM6.23 53.633a7.486 7.486 0 00-5.428-.812 7.525 7.525 0 003.436 4.283 7.537 7.537 0 005.428.83 7.472 7.472 0 00-3.436-4.3zm4.892-8.403a7.55 7.55 0 014.813-2.65 7.608 7.608 0 01-1.744 5.215 7.57 7.57 0 01-4.813 2.65 7.609 7.609 0 011.744-5.215zm-5.916.53A7.49 7.49 0 000 44.016a7.557 7.557 0 002.642 4.822 7.54 7.54 0 005.206 1.752 7.517 7.517 0 00-2.642-4.83zm6.264-7.42a7.535 7.535 0 015.198-1.77 7.574 7.574 0 01-2.624 4.83 7.522 7.522 0 01-5.198 1.77 7.574 7.574 0 012.624-4.83zm-5.915-.504A7.554 7.554 0 00.733 35.21a7.59 7.59 0 001.761 5.206 7.578 7.578 0 004.822 2.642 7.605 7.605 0 00-1.761-5.223zm7.455-6.215a7.533 7.533 0 015.428-.846A7.57 7.57 0 019.59 35.92a7.495 7.495 0 013.42-4.3zm-5.736-1.53a7.52 7.52 0 00-4.292-3.428 7.53 7.53 0 00.83 5.428 7.569 7.569 0 004.29 3.437 7.547 7.547 0 00-.828-5.437zm8.423-4.831a7.493 7.493 0 015.489.12 7.508 7.508 0 01-4.12 3.642 7.515 7.515 0 01-5.48-.12 7.52 7.52 0 014.111-3.641zm-5.385-2.504a7.602 7.602 0 00-3.633-4.129 7.604 7.604 0 00-.12 5.497 7.602 7.602 0 003.633 4.129 7.56 7.56 0 00.12-5.497zm9.128-3.282a7.495 7.495 0 015.394 1.068 7.554 7.554 0 01-4.693 2.864 7.473 7.473 0 01-5.386-1.068 7.512 7.512 0 014.685-2.864zm-4.873-3.402a7.596 7.596 0 00-2.855-4.694 7.53 7.53 0 00-1.069 5.395 7.462 7.462 0 002.856 4.693 7.538 7.538 0 001.068-5.394zm9.563-1.659c1.974 0 3.77.752 5.111 1.992a7.473 7.473 0 01-5.103 2.009 7.525 7.525 0 01-5.12-1.992 7.6 7.6 0 015.111-2.009zm-4.215-4.197a7.5 7.5 0 00-2.01-5.12 7.562 7.562 0 00.018 10.249 7.562 7.562 0 001.992-5.13zm9.71.051a7.575 7.575 0 014.701 2.847 7.55 7.55 0 01-5.385 1.094 7.544 7.544 0 01-4.693-2.856 7.49 7.49 0 015.377-1.085zm-3.411-4.873A7.578 7.578 0 0025.128 0a7.578 7.578 0 00-1.761 10.096 7.614 7.614 0 002.847-4.702z" fill="#D2A02A"/><path d="M17.912 16.208a42.732 42.732 0 00-9.976 27.509c0 11.814 4.787 22.517 12.515 30.27 6.813 6.822 15.917 11.353 26.056 12.327 6.01.24 10.72 4.292 11.865 9.686h.71a12.943 12.943 0 00-4.266-7.172c-2.582-2.214-4.907-2.83-8.198-3.138-10.019-.957-19.003-5.428-25.731-12.156C13.262 65.9 8.55 55.36 8.55 43.717a42.04 42.04 0 019.968-27.244c1.197-1.428 4.163-4.66 5.403-5.668-1.437.624-5.035 4.249-6.01 5.403z" fill="#D2A02A"/><path fill-rule="evenodd" clip-rule="evenodd" d="M28.732 5.744a6.438 6.438 0 014.608-.598 6.384 6.384 0 01-7.591 4.163 6.392 6.392 0 012.983-3.565zM69.27 78.767a7.474 7.474 0 00-.12-5.497 7.555 7.555 0 00-3.625 4.129 7.518 7.518 0 00.12 5.497 7.588 7.588 0 003.625-4.13zm2.504 5.402a7.509 7.509 0 014.112 3.633 7.473 7.473 0 01-5.48.12 7.494 7.494 0 01-4.12-3.633 7.493 7.493 0 015.488-.12zm3.286-9.147a7.487 7.487 0 00-1.069-5.394 7.572 7.572 0 00-1.795 10.087 7.593 7.593 0 002.864-4.693zm3.394 4.872a7.566 7.566 0 014.693 2.873 7.547 7.547 0 01-10.079-1.804 7.636 7.636 0 015.386-1.069zm1.636-9.574c0-1.974-.753-3.77-1.993-5.12a7.516 7.516 0 00-2 5.12 7.477 7.477 0 001.983 5.12 7.5 7.5 0 002.01-5.12zm4.197 4.215c1.983.008 3.77.77 5.111 2.009a7.519 7.519 0 01-5.111 1.991c-1.984 0-3.77-.76-5.113-2.008a7.504 7.504 0 015.112-1.992zm-.033-9.72a7.53 7.53 0 00-2.846-4.702 7.579 7.579 0 00-1.086 5.394 7.494 7.494 0 002.847 4.702 7.622 7.622 0 001.085-5.394zm4.864 3.428a7.44 7.44 0 015.378 1.085 7.497 7.497 0 01-4.694 2.847 7.472 7.472 0 01-5.385-1.086 7.493 7.493 0 014.701-2.846zm-1.734-9.575a7.591 7.591 0 00-3.616-4.137 7.56 7.56 0 00-.137 5.497 7.591 7.591 0 003.616 4.137 7.514 7.514 0 00.137-5.497zm5.385 2.53a7.47 7.47 0 015.48.138 7.527 7.527 0 01-4.129 3.624 7.47 7.47 0 01-5.48-.137 7.523 7.523 0 014.13-3.624zm-3.359-9.121a7.574 7.574 0 00-4.282-3.445 7.555 7.555 0 00.82 5.437 7.523 7.523 0 004.275 3.445 7.508 7.508 0 00-.812-5.437zm5.737 1.556a7.485 7.485 0 015.428-.812 7.524 7.524 0 01-3.436 4.283 7.525 7.525 0 01-5.429.83 7.505 7.505 0 013.437-4.3zm-4.884-8.403a7.57 7.57 0 00-4.822-2.65 7.659 7.659 0 001.753 5.215 7.55 7.55 0 004.813 2.65 7.567 7.567 0 00-1.744-5.215zm5.915.53a7.533 7.533 0 015.198-1.752 7.522 7.522 0 01-2.642 4.821 7.54 7.54 0 01-5.206 1.753 7.568 7.568 0 012.65-4.822zm-6.264-7.42a7.556 7.556 0 00-5.206-1.77 7.547 7.547 0 002.633 4.83 7.522 7.522 0 005.197 1.77 7.573 7.573 0 00-2.624-4.83zm5.915-.504a7.514 7.514 0 014.822-2.625 7.596 7.596 0 01-1.77 5.206 7.558 7.558 0 01-4.821 2.642 7.612 7.612 0 011.77-5.223zm-7.455-6.215a7.546 7.546 0 00-5.429-.846 7.59 7.59 0 003.42 4.3 7.59 7.59 0 005.428.846 7.564 7.564 0 00-3.42-4.3zm5.736-1.53a7.493 7.493 0 014.291-3.428 7.497 7.497 0 01-.846 5.428 7.542 7.542 0 01-4.292 3.437c-.384-1.795-.145-3.736.847-5.437zm-8.428-4.831a7.494 7.494 0 00-5.488.12 7.538 7.538 0 009.609 3.522 7.537 7.537 0 00-4.121-3.641zm5.394-2.504a7.62 7.62 0 013.625-4.129 7.517 7.517 0 01.12 5.497 7.588 7.588 0 01-3.625 4.129 7.516 7.516 0 01-.12-5.497zm-9.139-3.282a7.473 7.473 0 00-5.385 1.068 7.535 7.535 0 004.684 2.864 7.464 7.464 0 005.386-1.068 7.49 7.49 0 00-4.685-2.864zm4.873-3.402a7.532 7.532 0 012.864-4.694 7.529 7.529 0 011.068 5.395 7.572 7.572 0 01-2.855 4.693 7.627 7.627 0 01-1.077-5.394zm-9.553-1.659c-1.984 0-3.77.752-5.121 1.992a7.494 7.494 0 005.112 2.009 7.5 7.5 0 005.112-1.992 7.578 7.578 0 00-5.103-2.009zm4.214-4.197c0-1.975.76-3.779 2-5.12a7.52 7.52 0 011.992 5.129 7.5 7.5 0 01-2.009 5.12 7.514 7.514 0 01-1.983-5.13zm-9.714.051a7.533 7.533 0 00-4.693 2.847 7.55 7.55 0 005.386 1.094 7.544 7.544 0 004.693-2.856 7.522 7.522 0 00-5.386-1.085zm3.42-4.873A7.578 7.578 0 0176.262 0a7.53 7.53 0 012.847 4.702 7.582 7.582 0 01-1.094 5.394 7.602 7.602 0 01-2.838-4.702z" fill="#D2A02A"/><path d="M83.475 16.208a42.693 42.693 0 019.985 27.509c0 11.814-4.787 22.517-12.523 30.27-6.805 6.822-15.91 11.353-26.048 12.327-6.01.24-10.72 4.292-11.874 9.686h-.7a12.93 12.93 0 014.256-7.172c2.582-2.214 4.916-2.83 8.207-3.138 10.002-.957 18.995-5.428 25.714-12.156C88.117 65.9 92.827 55.36 92.827 43.717a42.032 42.032 0 00-9.959-27.244c-1.205-1.428-4.163-4.66-5.41-5.668 1.435.624 5.034 4.249 6.017 5.403z" fill="#D2A02A"/><path fill-rule="evenodd" clip-rule="evenodd" d="M72.648 5.744a6.41 6.41 0 00-4.6-.598 6.365 6.365 0 002.975 3.565 6.394 6.394 0 004.608.598 6.293 6.293 0 00-2.983-3.565z" fill="#D2A02A"/><path d="M36.267 52.036h2.317l-.243 3.537h-2.074v1.712h2.008l-.353 4.582h1.765l.353-4.582h2.626l-.353 4.582h1.766l.375-4.582h2.228v-1.712h-2.184l.243-3.537h1.941v-1.712h-1.875l.353-4.582h-1.765l-.354 4.582h-2.648l.376-4.582H38.98l-.353 4.582h-2.361v1.712zm4.082 0h2.626l-.242 3.537h-2.627l.243-3.537zM53.48 21.333c-.55 6.117-1.71 7.173-6.012 7.173h-3.586v4.615h8.11v28.746h6.675V21.333H53.48z" fill="#D2A02A"/></symbol><symbol id="burger" viewBox="0 0 20 18"><path fill-rule="evenodd" clip-rule="evenodd" d="M20 1.833H0v-1.5h20v1.5zm-4 8H0v-1.5h16v1.5zm4 8H0v-1.5h20v1.5z" fill="#000"/></symbol><symbol id="cart" viewBox="0 0 20 20"><path fill-rule="evenodd" clip-rule="evenodd" d="M.949 1.899h1.33l.01.042 2.79 10.383.016.038a.95.95 0 00.882.598h10.999c.187.001.43-.053.587-.156a.948.948 0 00.353-.426l.02-.049 2.015-8.06v-.003a.957.957 0 00-.117-.84l-.01-.014-.012-.015a.956.956 0 00-.762-.38H4.65L3.859.65V.647A.948.948 0 002.96 0H.95a.949.949 0 000 1.899zm17.527 2.514H4.4l1.921 7.152H16.69l1.787-7.152zM7.987 15.475a1.565 1.565 0 100 3.13 1.565 1.565 0 000-3.13zm-2.093-.529a2.96 2.96 0 114.187 4.187 2.96 2.96 0 01-4.187-4.187zm9.134.529a1.565 1.565 0 100 3.13 1.565 1.565 0 000-3.13zm-2.094-.529a2.96 2.96 0 114.187 4.187 2.96 2.96 0 01-4.187-4.187z"/></symbol><symbol id="check" viewBox="0 0 405.272 405.272"><path d="M393.401 124.425L179.603 338.208c-15.832 15.835-41.514 15.835-57.361 0L11.878 227.836c-15.838-15.835-15.838-41.52 0-57.358 15.841-15.841 41.521-15.841 57.355-.006l81.698 81.699L336.037 67.064c15.841-15.841 41.523-15.829 57.358 0 15.835 15.838 15.835 41.514.006 57.361z"/></symbol><symbol id="chevron" viewBox="0 0 10 6"><path fill-rule="evenodd" clip-rule="evenodd" d="M0 1.278L1.239.143 5 3.588 8.761.143 10 1.278l-5 4.58-5-4.58z"/></symbol><symbol id="flag" viewBox="0 0 24 18"><g clip-path="url(#clip0_103_430)"><path d="M0 0h24v18H0V0z" fill="#006"/><path d="M-6.024 0v2.018L7.99 9.024l1.027.514 17.021 8.51h4.036v-2.017L16.06 9.024l-1.027-.514L-1.989 0h-4.036zm36.097 0v2.018l-7.997 3.998-6.016 3.008-6.016 3.008-1.028.514-11.004 5.502h-4.036v-2.017l7.997-3.999 6.016-3.008 6.016-3.008 1.027-.514L26.038 0h4.036zM9.016 0v18.048h6.017V0H9.015zm-15.04 6.016v6.016h36.097V6.016H-6.024z" fill="#fff"/><path d="M9.016 9.538L7.99 9.024l-6.016 3.008h7.043V9.538zm6.017-1.028l1.027.514 6.016-3.008h-7.043V8.51zm0-3.008l-1.028.514h1.027v-.514zm-4.989 6.53H9.016v.514l1.028-.514z" fill="#fff"/><path d="M-6.024 7.22v3.609h36.097v-3.61H-6.024zM10.22 0v18.048h3.61V0h-3.61zM-7.024 18.048l12.032-6.016h2.69l-12.031 6.016h-2.69zm2-18.048L7.008 6.016h-2.69l-9.342-4.67V0zM16.35 6.016L28.382 0h2.69l-12.03 6.016h-2.69zm12.723 12.032L17.04 12.032h2.69l9.342 4.671v1.345z" fill="#C00"/></g></symbol><symbol id="logo-license" viewBox="0 0 211 64"><path d="M28.047 63.5S1 55.447 1 15.71V.5h54.1v15.21c0 38.318-27.052 47.79-27.052 47.79z" fill="#51AF3D"/><path d="M70.135 31.014v-21.5h13.06v1.582a2.948 2.948 0 01-.857 2.067 2.903 2.903 0 01-2.055.851h-4.94v4.518h6.502v1.536c0 .79-.312 1.55-.866 2.108a2.945 2.945 0 01-2.091.874h-3.545v7.964h-5.209zm16.005 0v-21.5h7.425c1.888 0 3.27.17 4.145.51a5.915 5.915 0 012.893 2.331 7.07 7.07 0 011.042 3.926 7.491 7.491 0 01-.834 3.443 5.36 5.36 0 01-2.352 2.417v.061c.295.414.563.846.804 1.293l4.145 7.519h-5.817l-3.788-7.248h-2.437v7.248H86.14zm5.217-11.76h2.269a2.748 2.748 0 001.995-.691 2.576 2.576 0 00.706-1.954c0-1.185-.417-1.948-1.251-2.288a5.086 5.086 0 00-1.968-.307h-1.76l.009 5.24zm14.413 11.76v-21.5h13.358v4.5h-8.147v3.916h6.502v4.512h-6.502v4.06h8.558v4.512H105.77zm17.111 0v-21.5h13.361v4.5h-8.144v3.916h6.502v4.512h-6.502v4.06h8.561v4.512h-13.778zm17.115 0v-21.5h7.575c3.376 0 6.056.947 8.037 2.841 1.982 1.894 2.971 4.516 2.967 7.866 0 3.366-.989 6.007-2.967 7.921-1.977 1.915-4.656 2.873-8.037 2.875l-7.575-.003zm5.221-4.512h2.147c1.827 0 3.248-.541 4.264-1.625 1.015-1.083 1.528-2.636 1.538-4.659 0-2.006-.517-3.542-1.551-4.607-1.033-1.065-2.454-1.595-4.263-1.59h-2.148l.013 12.481zm15.592-6.376c0-3.127 1.044-5.738 3.131-7.835 2.088-2.097 4.762-3.144 8.022-3.142 3.261 0 5.935 1.047 8.023 3.142 2.087 2.095 3.135 4.706 3.143 7.835 0 3.206-1.048 5.879-3.143 8.016-2.096 2.138-4.77 3.21-8.023 3.22-3.26.007-5.934-1.066-8.022-3.22-2.087-2.154-3.131-4.826-3.131-8.016zm5.397 0c0 1.843.542 3.378 1.627 4.607a5.585 5.585 0 004.129 1.837 5.585 5.585 0 004.13-1.837c1.085-1.229 1.627-2.764 1.627-4.607a6.246 6.246 0 00-1.627-4.407 5.73 5.73 0 00-8.259 0 6.246 6.246 0 00-1.627 4.407zm19.386 10.889l1.757-21.5h5.668l3.101 9.076 1.072 3.55h.061a84.267 84.267 0 011.075-3.55l3.1-9.079h5.668l1.73 21.5h-5.22l-.655-9.684a18.916 18.916 0 01-.061-1.625c0-.602 0-1.081.028-1.444l.033-.54h-.061a136.858 136.858 0 01-1.194 3.608l-2.235 6.226h-4.474l-2.236-6.226-1.194-3.608h-.061a27.15 27.15 0 010 3.608l-.654 9.685-5.248.003zM70.367 54.021v-12.86h3.119v5.145h4.638V41.16h3.122v12.86h-3.122v-5.037h-4.638v5.037h-3.12zM83.23 47.51a6.393 6.393 0 01.454-2.539 6.35 6.35 0 011.42-2.147c1.248-1.253 2.847-1.88 4.797-1.88 1.949 0 3.549.627 4.8 1.88a6.348 6.348 0 011.417 2.148c.322.806.476 1.67.453 2.539a6.639 6.639 0 01-.45 2.594 6.595 6.595 0 01-1.42 2.21c-1.253 1.29-2.855 1.934-4.806 1.934-1.952 0-3.55-.64-4.797-1.922a6.593 6.593 0 01-1.422-2.216 6.636 6.636 0 01-.445-2.6zm3.229 0a3.995 3.995 0 00.971 2.765 3.351 3.351 0 002.473 1.085 3.325 3.325 0 002.465-1.103 3.994 3.994 0 00.974-2.764c.03-.974-.32-1.92-.974-2.636a3.44 3.44 0 00-2.47-1.054 3.417 3.417 0 00-2.47 1.054 3.728 3.728 0 00-.975 2.654h.006zm12.087 6.511v-12.86h3.119v10.16h5.208v2.7h-8.327zm9.844 0v-12.86h4.532c2.018 0 3.62.566 4.806 1.699 1.186 1.132 1.777 2.7 1.775 4.702 0 2.015-.591 3.595-1.775 4.74-1.184 1.144-2.786 1.717-4.806 1.72h-4.532zm3.122-2.7h1.285c1.094 0 1.947-.323 2.558-.97.611-.647.916-1.577.914-2.789 0-1.198-.31-2.12-.929-2.764-.619-.645-1.469-.962-2.549-.952h-1.285l.006 7.476zm10.024 2.7v-12.86h3.116v12.86h-3.116zm5.798 0v-12.86h3.156l3.533 6.023c.143.252.304.56.481.922s.304.67.426.921l.162.36h.036c-.095-.924-.143-1.655-.143-2.193V41.16h3.122v12.86h-3.14l-3.548-5.989a20.664 20.664 0 01-.911-1.843l-.161-.36h-.034c.094.924.141 1.656.143 2.197v5.99l-3.122.005zm12.77-6.458a6.446 6.446 0 01.466-2.561 6.393 6.393 0 011.441-2.16 6.527 6.527 0 012.202-1.445 6.487 6.487 0 012.589-.453c1.985 0 3.621.569 4.906 1.707l-1.501 2.36a4.514 4.514 0 00-1.426-.845 4.536 4.536 0 00-1.675-.344c-1.261 0-2.204.345-2.829 1.035a3.728 3.728 0 00-.935 2.598 3.824 3.824 0 001.06 2.841 3.541 3.541 0 002.595 1.063 4.115 4.115 0 002.588-.922v-.992h-1.803v-2.69h4.569v7.267h-2.604v-.36l.018-.54h-.036a4.256 4.256 0 01-1.49.807c-.6.204-1.23.308-1.864.308a6.049 6.049 0 01-2.39-.455 6.091 6.091 0 01-2.023-1.36c-1.238-1.213-1.858-2.832-1.858-4.86zm18.614 0a6.449 6.449 0 011.883-4.73c1.254-1.259 2.858-1.889 4.809-1.889.888 0 1.769.156 2.604.461.814.287 1.557.75 2.174 1.358l-1.443 2.374a5.46 5.46 0 00-1.508-.946 4.297 4.297 0 00-1.687-.369c-1.188 0-2.085.357-2.692 1.072a3.871 3.871 0 00-.914 2.599 4.164 4.164 0 00.938 2.715c.625.767 1.514 1.151 2.665 1.151 1.218 0 2.348-.527 3.39-1.581l1.605 2.3a6.852 6.852 0 01-2.342 1.624c-.884.37-1.836.55-2.793.526-2.031 0-3.655-.627-4.873-1.88-1.219-1.253-1.824-2.848-1.816-4.785zm12.416-.053a6.362 6.362 0 011.874-4.687c1.248-1.252 2.848-1.879 4.799-1.879 1.952 0 3.551.627 4.797 1.88a6.376 6.376 0 011.873 4.687 6.626 6.626 0 01-1.873 4.804c-1.248 1.29-2.847 1.934-4.797 1.934-1.949 0-3.549-.64-4.799-1.922a6.585 6.585 0 01-1.425-2.215 6.64 6.64 0 01-.449-2.601zm3.229 0a4.016 4.016 0 00.971 2.765 3.35 3.35 0 002.472 1.098 3.323 3.323 0 002.471-1.098 3.995 3.995 0 00.972-2.764 3.723 3.723 0 00-.972-2.635 3.422 3.422 0 00-4.943 0 3.741 3.741 0 00-.971 2.635zm12.095 6.512v-12.86h4.44a7.388 7.388 0 012.479.307 3.53 3.53 0 011.73 1.395c.428.704.64 1.52.61 2.346a4.513 4.513 0 01-.5 2.061 3.188 3.188 0 01-1.407 1.447v.036c.175.249.336.507.481.775l2.479 4.496h-3.463l-2.259-4.34h-1.462v4.337h-3.128zm3.122-7.033h1.355c.437.026.866-.123 1.194-.415a1.543 1.543 0 00.429-1.167c0-.71-.25-1.164-.749-1.37a3.11 3.11 0 00-1.179-.178h-1.05v3.13zm8.611 7.033v-12.86h5.3a3.893 3.893 0 013.003 1.228 4.5 4.5 0 011.151 3.185 4.56 4.56 0 01-1.151 3.213 3.912 3.912 0 01-1.367.953 3.878 3.878 0 01-1.636.294h-2.178v3.977l-3.122.01zm3.122-6.675h1.523a1.514 1.514 0 001.218-.485 1.89 1.89 0 00.421-1.278 1.853 1.853 0 00-.412-1.259 1.468 1.468 0 00-1.16-.467h-1.587l-.003 3.49zm6.76 5.2c0-.392.154-.767.429-1.044a1.459 1.459 0 012.071 0 1.48 1.48 0 01.316 1.609 1.46 1.46 0 01-2.816-.564z" fill="#000"/><path d="M43.664 15.829H21.876v12.62h21.788v3.781c0 6.392-1.788 11.552-11.427 11.573H21.882v16.68c3.578 2.243 6.17 3.017 6.17 3.017s27.052-9.472 27.052-47.79V4.246c-.006 6.388-2.812 11.465-11.44 11.582z" fill="#0F5431"/></symbol><symbol id="logo" viewBox="0 0 200 36"><g clip-path="url(#clip0_103_373)"><path d="M46.425 6.085v2.957h6.248v3.305h-6.248v5.527h-4.093V2.791h10.87v3.294h-6.777zm18.217 7.791h-3.16v3.998h-4.093V2.791h7.896a10.52 10.52 0 013.016.398c.715.222 1.32.703 1.689 1.346a5.78 5.78 0 01.56 2.825c.017.784-.028 1.568-.135 2.345a2.406 2.406 0 01-.757 1.387 4.312 4.312 0 01-2.01.908v.163a3.14 3.14 0 012.072.724 2.544 2.544 0 01.746 1.948v3.06h-4.145v-2.132c0-1.264-.56-1.887-1.679-1.887zm-3.16-3.508h3.16c.398.026.797-.044 1.161-.204a.937.937 0 00.446-.663c.069-.493.093-.991.072-1.489a2.014 2.014 0 00-.342-1.366 1.93 1.93 0 00-1.357-.357h-3.14v4.08zM79.15 6.085v2.754h6.539v2.794H79.15v2.937h7.12v3.304H75.066V2.791h11.057v3.294H79.15zm15.897 0v2.754h6.549v2.794h-6.55v2.937h7.12v3.304H90.964V2.791h11.057v3.294h-6.974zm11.689 11.789V2.791h7.761a9.086 9.086 0 013.534.571 3.862 3.862 0 012 1.867 7.72 7.72 0 01.643 3.416v3.192a9.504 9.504 0 01-.529 3.457 3.661 3.661 0 01-1.751 1.968 7.136 7.136 0 01-3.337.653l-8.321-.04zm4.083-11.585v8.087h3.575c1.378 0 2.072-.867 2.072-2.58V8.645a3.843 3.843 0 00-.217-1.469 1.216 1.216 0 00-.653-.693 2.976 2.976 0 00-1.202-.194h-3.575zm21.015 11.667c-.993.01-1.985-.069-2.964-.235a5.958 5.958 0 01-2.176-.826 3.905 3.905 0 01-1.44-1.693 6.6 6.6 0 01-.508-2.784V8.196a6.6 6.6 0 01.508-2.784 3.903 3.903 0 011.44-1.734 5.958 5.958 0 012.176-.826 19.7 19.7 0 015.928 0c.778.128 1.521.41 2.186.826a3.9 3.9 0 011.441 1.693c.364.883.537 1.832.508 2.784v4.263a6.762 6.762 0 01-.508 2.784 3.899 3.899 0 01-1.441 1.734 5.928 5.928 0 01-2.186.826c-.979.166-1.971.245-2.964.235v-.041zm0-3.457a7.47 7.47 0 001.762-.164 1.338 1.338 0 00.85-.683 3.662 3.662 0 00.269-1.632V8.624a5.011 5.011 0 00-.145-1.336 1.398 1.398 0 00-.487-.724 1.82 1.82 0 00-.85-.326c-.464-.055-.931-.08-1.399-.071a7.308 7.308 0 00-1.741.153 1.328 1.328 0 00-.839.673 4.023 4.023 0 00-.301 1.631v3.396a4.023 4.023 0 00.301 1.632 1.303 1.303 0 00.839.683c.572.125 1.156.18 1.741.164zm15.171-8.189l.415 11.564h-4.094V2.791h6.477l2.922 9.464h.156l2.777-9.464h6.632v15.083h-4.083l.415-11.565h-.145l-3.886 11.565h-3.534L147.13 6.31h-.125z" fill="#000"/><path d="M185.171 14.733v3.141h-12.114v-3.14a9.275 9.275 0 01.207-2.173c.117-.502.38-.959.757-1.316.458-.39.989-.688 1.564-.877.942-.313 1.9-.575 2.871-.785 1.036-.245 1.741-.418 2.072-.52a.955.955 0 00.601-.459 2.85 2.85 0 00.156-1.132 2.433 2.433 0 00-.187-1.101.938.938 0 00-.632-.46 5.973 5.973 0 00-1.326-.111 6.437 6.437 0 00-1.42.112.823.823 0 00-.58.459 3.491 3.491 0 00-.166 1.183v.744h-3.917v-.744a6.687 6.687 0 01.394-2.479 3.152 3.152 0 011.14-1.488 4.94 4.94 0 011.855-.725 15.187 15.187 0 012.673-.203c1.115-.03 2.229.08 3.316.326a3.35 3.35 0 012.021 1.366 5.32 5.32 0 01.725 3.06 8.533 8.533 0 01-.207 2.04c-.11.482-.346.928-.684 1.295a3.815 3.815 0 01-1.233.826c-.674.273-1.367.502-2.073.683-.456.122-1.036.255-1.761.408-.497.09-.986.22-1.461.387a1.03 1.03 0 00-.581.52 2.595 2.595 0 00-.186 1.122l8.176.041zm13.554-11.942v9.178H200v2.927h-1.306v2.978h-3.875v-2.978h-8.021v-4.303l5.948-7.802h5.979zm-3.875 9.178V5.85h-.145l-4.663 6.12h4.808z" fill="#72BF44"/><path fill-rule="evenodd" clip-rule="evenodd" d="M11.865 10.637v4.405h16.228v8.832H11.865v10.33a19.06 19.06 0 003.907 1.296c7.907-1.611 15.316-8.485 15.554-20.835l.083-4.08-19.544.052z" fill="#2D7D2F"/><path d="M31.42 10.637l.155-9.525A202.078 202.078 0 0015.793.5C10.48.5 5.216.704 0 1.112l.093 7.445.156 6.118s0 5.66 1.979 9.709c1.85 4.355 5.297 7.865 9.658 9.831v-10.33h16.207v-8.843H11.865v-4.405H31.42z" fill="#72BF44"/><path d="M44.558 33.57c1.315 0 1.997-.874 1.997-2.192v-1.845c0-1.318-.67-2.205-1.96-2.205-.706 0-1.304.264-1.698.73h-.024V24.5H42v8.975h.765l.048-.635h.024c.418.48 1.016.73 1.721.73zm-1.685-4.756a1.836 1.836 0 011.482-.743c.897 0 1.327.563 1.327 1.474v1.833c0 .923-.442 1.474-1.339 1.474-.705 0-1.183-.324-1.47-.767v-3.271zm9.9-1.378h-.92l-1.65 4.96h-.024l-1.9-4.96h-.981l2.462 5.943-.107.324c-.251.742-.634 1.054-1.363 1.162l.072.635c1.064-.06 1.661-.6 2.056-1.666l2.355-6.398zm4.15-2.648v8.687h.98v-3.966h3.3v-.815h-3.3V25.65h3.838v-.862h-4.818zm8.802 2.72a1.671 1.671 0 00-.729-.168c-.693 0-1.255.395-1.59 1.246h-.024l-.035-1.15h-.766v6.039h.873v-3.463c.096-1.078.61-1.857 1.53-1.857.227 0 .43.048.61.143l.132-.79zm4.997 2.947v-.958c0-1.223-.79-2.17-2.164-2.17-1.399 0-2.188.912-2.188 2.146v1.953c0 1.258.79 2.157 2.224 2.157 1.112 0 1.793-.515 2.14-1.51l-.634-.252c-.31.755-.741 1.067-1.435 1.067-.908 0-1.422-.551-1.422-1.486v-.947h3.479zm-3.48-1.03c0-.839.431-1.414 1.34-1.414.86 0 1.363.54 1.363 1.402v.467h-2.702v-.455zm8.92 1.03v-.958c0-1.223-.789-2.17-2.164-2.17-1.398 0-2.188.912-2.188 2.146v1.953c0 1.258.79 2.157 2.224 2.157 1.112 0 1.793-.515 2.14-1.51l-.634-.252c-.31.755-.74 1.067-1.434 1.067-.909 0-1.423-.551-1.423-1.486v-.947h3.48zm-3.479-1.03c0-.839.43-1.414 1.34-1.414.86 0 1.362.54 1.362 1.402v.467h-2.702v-.455zm6.565-2.109c-1.316 0-1.997.887-1.997 2.205v1.857c0 1.318.681 2.205 1.96 2.205.718 0 1.328-.264 1.746-.743h.024l.048.635h.777V24.5h-.873v3.499h-.024c-.406-.443-.992-.683-1.662-.683zm1.685 4.793a1.804 1.804 0 01-1.482.743c-.897 0-1.327-.551-1.327-1.462v-1.857c0-.935.442-1.486 1.339-1.486a1.77 1.77 0 011.47.73v3.332zm6.921-2.636c0-1.246-.801-2.145-2.284-2.145-1.482 0-2.283.91-2.283 2.145v1.989c0 1.246.8 2.12 2.283 2.12 1.47 0 2.284-.886 2.284-2.12v-1.99zm-3.694.024c0-.887.43-1.474 1.41-1.474.969 0 1.411.587 1.411 1.474v1.929c0 .887-.442 1.462-1.41 1.462-.97 0-1.411-.575-1.411-1.462v-1.93zm9.258.036c0-1.019.526-1.45 1.232-1.45.813 0 1.171.551 1.171 1.45v3.942h.873v-3.942c0-1.474-.693-2.205-1.853-2.205-.741 0-1.35.371-1.674 1.006h-.024c-.263-.695-.813-1.006-1.506-1.006-.622 0-1.195.3-1.566.85h-.024v-.742h-.777v6.039h.873v-4.482c.239-.527.729-.91 1.29-.91.658 0 1.113.383 1.113 1.45v3.942h.872v-3.942zm7.846-4.745v8.687h.98v-3.966h3.3v-.815h-3.3V25.65h3.838v-.862h-4.818zm6.221 2.648v6.039h.873v-6.04h-.873zm.012-2.648v1.222h.849v-1.222h-.849zm3.509 4.038a1.818 1.818 0 011.494-.755c.885 0 1.315.539 1.315 1.474v3.93h.873v-3.942c0-1.33-.67-2.205-1.961-2.205-.729 0-1.351.276-1.769.779h-.024l-.024-.671h-.777v6.039h.873v-4.65zm5.628.131c.347-.587.801-.934 1.387-.934.741 0 1.112.455 1.112 1.354v.659h-.538c-2.033 0-2.69.827-2.69 1.941 0 .97.621 1.594 1.685 1.594.622 0 1.196-.216 1.638-.635.144.347.478.61.992.61.168 0 .323-.035.455-.071v-.527h-.168c-.334 0-.502-.204-.502-.54v-3.031c0-1.174-.55-2.061-1.877-2.061-.944 0-1.578.527-2.032 1.294l.538.348zm1.124 3.967c-.634 0-1.004-.3-1.004-.995 0-.767.418-1.258 1.841-1.258h.538v1.618c-.359.42-.778.635-1.375.635zm4.806-4.098a1.818 1.818 0 011.494-.755c.885 0 1.315.539 1.315 1.474v3.93h.873v-3.942c0-1.33-.67-2.205-1.961-2.205-.729 0-1.351.276-1.769.779h-.024l-.024-.671h-.777v6.039h.873v-4.65zm9.179-.18c-.359-.815-1.076-1.318-2.021-1.318-1.422 0-2.187.922-2.187 2.145v1.965c0 1.21.765 2.145 2.187 2.145 1.064 0 1.734-.563 2.057-1.414l-.634-.252c-.275.66-.705.959-1.363.959-.873 0-1.375-.54-1.375-1.474v-1.893c0-.959.49-1.462 1.375-1.462.61 0 1.1.287 1.351.887l.61-.288zm5.245 1.809v-.958c0-1.223-.789-2.17-2.164-2.17-1.399 0-2.188.912-2.188 2.146v1.953c0 1.258.789 2.157 2.224 2.157 1.112 0 1.793-.515 2.14-1.51l-.634-.252c-.31.755-.741 1.067-1.434 1.067-.909 0-1.423-.551-1.423-1.486v-.947h3.479zm-3.479-1.03c0-.839.431-1.414 1.339-1.414.861 0 1.363.54 1.363 1.402v.467h-2.702v-.455z" fill="#777"/></g></symbol><symbol id="lupa" viewBox="0 0 16 16"><path fill-rule="evenodd" clip-rule="evenodd" d="M7.335 1.371a5.964 5.964 0 104.013 10.375.685.685 0 01.398-.398 5.964 5.964 0 00-4.411-9.977zm5.649 10.643a7.335 7.335 0 10-.97.97l2.815 2.815a.686.686 0 00.97-.97l-2.815-2.815z"/></symbol><symbol id="quote" viewBox="0 0 65 60"><path opacity=".05" d="M64.54 31.494l-9.984-1.609c0-9.425 1.626-17.471 5.573-25.747L50.609 0c-8.357 11.724-12.536 24.368-12.536 39.08V60H64.54V31.494zm-37.38 0l-9.983-1.609c0-9.425 1.626-17.471 5.573-25.747L13.23 0C4.874 11.724.695 24.368.695 39.08V60H27.16V31.494z" fill="#000"/></symbol><symbol id="reviewer-1" viewBox="0 0 185 34"><path d="M0 0h13.5c2.571 0 4.5.643 5.929 1.714C21 3 21.857 4.857 21.857 7.143c0 2.643-1.071 4.286-3.214 5.286v.143c2.857.928 4.5 3.5 4.5 6.571 0 2.929-1.143 5.214-3 6.643-1.572 1.143-3.572 1.643-6.286 1.643H0V0zm12.143 10.714c1.428 0 2.5-.785 2.5-2.428 0-1.572-1.072-2.357-2.572-2.357H7.43v4.714h4.714v.071zm.643 10.643c1.643 0 2.857-1 2.857-2.785 0-1.929-1.286-2.786-2.857-2.786H7.5v5.643h5.286v-.072zM24.356 0h7.072v27.5h-7.072V0zm8.5 17.715c0-6.215 4-10.358 10.215-10.358 6.214 0 10.142 4.215 10.142 10.358 0 6.214-3.928 10.357-10.142 10.357-6.215 0-10.215-4.143-10.215-10.357zm13.286 0c0-3.429-1.072-5.572-3.214-5.572-2.143 0-3.143 2.143-3.143 5.572 0 3.428 1 5.642 3.143 5.642 2.143-.071 3.214-2.214 3.214-5.642zm7.858 0C54 11.5 58 7.357 64.214 7.357S74.285 11.5 74.285 17.715c0 6.214-3.928 10.357-10.142 10.357C58 28.072 54 23.929 54 17.715zm13.285 0c0-3.429-1.071-5.572-3.214-5.572s-3.143 2.143-3.143 5.572c0 3.428 1 5.642 3.143 5.642 2.143-.071 3.214-2.214 3.214-5.642zm8.429-9.858h6.572v2.929h.142c1.286-2.286 3.072-3.5 5.93-3.5 2.5 0 4.356 1.214 5.285 3.357h.143c1.571-2.571 3.642-3.357 6.071-3.357 4.572 0 6.5 3.357 6.5 7.857V27.43H99.5V16.357c0-2-.643-3.285-2.357-3.285-1.715 0-2.572 1.571-2.572 3.714v10.643h-6.857V16.357c0-2-.643-3.285-2.357-3.285-1.714 0-2.571 1.571-2.571 3.714v10.643h-7.072V7.857zm39.286 17h-.071v2.572h-6.571V0h6.857v9.857h.143c1.285-1.714 3.071-2.643 5.571-2.643 4.929 0 7.786 4.429 7.786 10.358 0 6.642-3.072 10.5-8.215 10.5-2.142 0-4.357-1-5.5-3.215zm6.643-7.357c0-3.143-1.143-5.214-3.214-5.214-2.143 0-3.429 2.071-3.429 5.214 0 3.143 1.358 5.214 3.429 5.214 2.071 0 3.214-2 3.214-5.214zm7.856.143c0-6.143 4.071-10.357 9.928-10.357 2.929 0 5.143.929 6.857 2.571 2.286 2.215 3.286 5.643 3.215 9.643h-13.143c.285 2.429 1.428 3.715 3.5 3.715 1.214 0 2.285-.572 2.714-1.858h6.643c-1.143 4.5-4.643 6.715-9.572 6.715-6.071-.072-10.142-4.215-10.142-10.429zm6.857-2.071h6.285c-.142-2.357-1.428-3.572-3.071-3.572-1.929-.071-3 1.286-3.214 3.572zm20.93-4.358h.143c1.428-2.714 3.285-3.785 5.643-3.785.571 0 .928.071 1.142.214v6h-.142c-4.072-.714-6.429 1.214-6.429 5.643V27.5h-6.929V7.857h6.572v3.357zm7.643 16.286h6.642c.286.857 1.143 1.643 2.786 1.643 2.214 0 3-1.357 3-3.429v-1.428h-.143c-1.071 1.285-2.571 2.214-4.714 2.214-4.214 0-7.929-3.143-7.929-9.286 0-5.642 3-10 7.572-10 2.643 0 4.214 1.072 5.286 2.715h.142V7.786h6.572v17c0 3.143-1.072 5.571-2.714 7-1.715 1.5-4.143 2.143-6.929 2.143-5.286.071-8.929-2.072-9.571-6.429zm12.714-10.571c0-2.429-1.143-4.429-3.143-4.429-1.929 0-3.143 1.714-3.143 4.429 0 2.643 1.214 4.5 3.143 4.5 1.929 0 3.143-1.929 3.143-4.5z" fill="#B8B8B8"/></symbol><symbol id="reviewer-2" viewBox="0 0 197 50"><path d="M46.43 32.438c0 .822.064 1.485.19 1.959.127.505.316.916.569 1.2.253.284.537.505.884.6.348.126.758.158 1.232.158v1.074H32.912v-1.074c.41 0 .822-.063 1.169-.158.347-.126.663-.316.884-.6.253-.284.442-.695.569-1.2.126-.506.19-1.169.19-1.959V18.541c0-.727-.032-1.327-.064-1.8-.031-.506-.126-.885-.316-1.233a1.92 1.92 0 00-.82-.758c-.38-.19-.917-.316-1.58-.41v-1.074H46.43v19.172zM40.682.126c.758 0 1.485.095 2.18.285a5.41 5.41 0 011.863.916c.537.41 1.01.947 1.358 1.61.348.664.506 1.422.506 2.338 0 .884-.158 1.61-.506 2.242a4.483 4.483 0 01-1.358 1.517 5.979 5.979 0 01-1.863.884c-.695.19-1.39.284-2.085.284a7.553 7.553 0 01-2.085-.284 5.394 5.394 0 01-1.8-.916 4.715 4.715 0 01-1.295-1.548c-.316-.631-.474-1.358-.474-2.242 0-.885.158-1.643.474-2.274A4.693 4.693 0 0136.86 1.39a4.966 4.966 0 011.77-.916c.694-.221 1.357-.348 2.052-.348zm24.163 13.172v3.126c.758-1.231 1.674-2.21 2.78-2.905 1.105-.695 2.463-1.043 4.043-1.043 2.716-.031 4.706.695 5.906 2.18 1.2 1.484 1.8 3.695 1.8 6.57V33.07c0 .284.064.632.159 1.01.094.38.252.727.442 1.075.19.347.473.631.79.853.347.22.757.347 1.231.379v1.074H67.972v-1.074c.316-.032.537-.221.695-.569.126-.347.19-1.105.19-2.306v-13.17c0-.98-.222-1.675-.632-2.149-.41-.442-.885-.663-1.358-.6-.474.063-.948.348-1.359.885-.41.537-.631 1.326-.631 2.368v12.382c0 1.074.095 1.832.284 2.274.19.442.537.758 1.105.916v1.074H51.58v-1.074c1.106-.031 1.832-.379 2.211-1.01.38-.632.569-1.58.569-2.812V18.541c0-.853-.063-1.548-.158-2.085-.127-.537-.284-.947-.505-1.232a1.987 1.987 0 00-.885-.631 4.463 4.463 0 00-1.232-.253v-1.074h13.266v.032zm31.27 11.971c-.221 0-.474.031-.727.063a1.667 1.667 0 00-.694.252 1.635 1.635 0 00-.537.506c-.158.22-.221.505-.221.884v5.938c0 .537.19.885.6 1.106.41.22.726.284 1.01.252.537-.063 1.074-.315 1.58-.726.505-.41.758-1.105.758-2.085v-6.19h-1.769zm1.769-7.581c0-1.074-.19-1.832-.6-2.242-.411-.411-1.138-.664-2.211-.727-.537 0-1.106.032-1.674.095-.569.063-.948.22-1.138.442a4.762 4.762 0 011.232 2.274c.158.821.095 1.611-.158 2.306-.284.726-.758 1.326-1.484 1.8-.727.474-1.611.727-2.716.727-1.074 0-2.022-.348-2.812-1.074-.79-.727-1.168-1.737-1.105-3.032.031-1.232.442-2.243 1.263-3.001a8.454 8.454 0 012.906-1.769 14.295 14.295 0 013.475-.821c1.2-.158 2.179-.221 2.937-.221 1.2 0 2.527.095 3.948.316 1.422.22 2.78.6 4.012 1.2a8.484 8.484 0 013.127 2.464c.821 1.042 1.231 2.432 1.231 4.169v11.37c0 .664.127 1.106.38 1.359.252.253.505.379.821.379.316 0 .6-.158.853-.442.252-.285.41-.632.442-1.106h.979c0 1.043-.19 1.927-.537 2.717-.347.758-.853 1.39-1.453 1.926a5.548 5.548 0 01-2.179 1.137 9.354 9.354 0 01-2.685.38c-1.358 0-2.527-.253-3.538-.79-.979-.537-1.769-1.358-2.306-2.495a11.23 11.23 0 01-3.663 2.526c-1.327.537-2.938.79-4.77.758-.916 0-1.8-.157-2.621-.442-.853-.284-1.58-.726-2.243-1.295-.663-.568-1.169-1.263-1.548-2.084-.379-.822-.568-1.77-.568-2.843 0-1.895.474-3.38 1.453-4.485.947-1.106 2.148-1.959 3.569-2.559 1.421-.6 3-.979 4.706-1.168a53.863 53.863 0 014.801-.316v-5.433h-.126zm27.132-4.39v3.126c.758-1.231 1.674-2.21 2.779-2.905 1.106-.695 2.464-1.043 4.043-1.043 2.717-.031 4.707.695 5.907 2.18 1.2 1.484 1.8 3.695 1.8 6.57V33.07c0 .284.063.632.158 1.01.095.38.253.727.442 1.075.19.347.474.631.79.853.347.22.758.347 1.232.379v1.074h-14.024v-1.074c.316-.032.537-.221.695-.569.126-.347.189-1.105.189-2.306v-13.17c0-.98-.221-1.675-.632-2.149-.41-.442-.884-.663-1.358-.6-.505.063-.947.348-1.358.885-.41.537-.632 1.326-.632 2.368v12.382c0 1.074.095 1.832.285 2.274.189.442.537.758 1.105.916v1.074H111.75v-1.074c1.105-.031 1.832-.379 2.211-1.01.379-.632.568-1.58.568-2.812V18.541c0-.853-.063-1.548-.158-2.085-.126-.537-.284-.947-.505-1.232a1.988 1.988 0 00-.884-.631 4.466 4.466 0 00-1.232-.253v-1.074h13.266v.032zm43.209 16.866c-1.358 2.653-3.032 4.675-4.991 6.033-1.958 1.358-4.485 2.053-7.58 2.085-1.864 0-3.601-.284-5.212-.885-1.611-.6-3.032-1.421-4.264-2.526-1.232-1.106-2.179-2.464-2.906-4.044-.726-1.579-1.074-3.348-1.074-5.306 0-1.958.379-3.727 1.106-5.306a12.541 12.541 0 013-4.106c1.264-1.169 2.748-2.053 4.422-2.685a15.428 15.428 0 015.402-.948c.758 0 1.547.032 2.4.063.853.064 1.737.19 2.622.411a13.07 13.07 0 012.495.916 8.93 8.93 0 012.085 1.39 6.908 6.908 0 011.453 1.863c.347.727.537 1.517.537 2.4 0 .727-.127 1.36-.38 1.865-.252.536-.6.979-1.042 1.358-.442.379-.947.631-1.484.82a5.323 5.323 0 01-1.706.253 4.629 4.629 0 01-2.337-.631c-.727-.41-1.232-1.01-1.548-1.769a3.903 3.903 0 01-.347-1.327 4.37 4.37 0 01.157-1.42c.127-.475.348-.885.601-1.296a3.84 3.84 0 011.042-.98c-.063-.504-.411-.915-1.011-1.23a5.809 5.809 0 00-1.958-.538c-.727-.063-1.358-.031-1.958.158-.601.158-.885.442-.885.821V32.85c0 .284.095.537.316.79a3 3 0 00.79.568c.316.158.663.253 1.01.348a4.44 4.44 0 001.106.126c1.295 0 2.495-.253 3.569-.726a12.745 12.745 0 002.811-1.674c.79-.632 1.422-1.232 1.864-1.8.474-.57.758-.949.853-1.138l1.042.821zm18.035-6.285v-8.055c0-.379-.221-.663-.632-.852a3.122 3.122 0 00-1.326-.285c-.442 0-.916.095-1.358.285-.443.19-.664.473-.664.852v8.055h3.98zm-3.948 2.242v6.475c0 .348.095.664.316.885a2.5 2.5 0 00.789.6 5.09 5.09 0 001.043.379c.379.095.789.126 1.168.19 1.864.126 3.601-.285 5.275-1.296 1.674-.979 3.19-2.305 4.549-3.98l1.105.79c-1.358 2.622-3.064 4.643-5.117 6.033-2.053 1.39-4.422 2.085-7.17 2.085-1.958 0-3.79-.284-5.496-.821-1.705-.537-3.19-1.359-4.422-2.433-1.263-1.073-2.242-2.4-2.969-4.01-.726-1.58-1.105-3.444-1.105-5.56 0-1.958.379-3.727 1.105-5.306.727-1.58 1.706-2.97 2.938-4.107 1.232-1.168 2.685-2.053 4.359-2.653 1.674-.631 3.442-.916 5.338-.916 1.958 0 3.695.348 5.243 1.011 1.547.695 2.874 1.643 3.948 2.843a12.734 12.734 0 012.495 4.327c.569 1.642.853 3.474.853 5.464h-14.245z" fill="#B8B8B8"/><path d="M135.534 49.273c.158 0 .316-.031.442-.094a.502.502 0 00.316-.253.934.934 0 00.189-.442 4.38 4.38 0 00.064-.727v-4.959c0-.252 0-.505-.032-.695-.032-.189-.063-.379-.126-.505a.619.619 0 00-.316-.316 1.787 1.787 0 00-.569-.158v-.379h4.991v1.58a4.96 4.96 0 01.41-.695c.158-.221.348-.41.537-.569.221-.158.442-.316.695-.41.253-.095.537-.158.853-.158.6 0 1.105.19 1.485.537.379.379.536.916.536 1.642 0 .537-.189.98-.505 1.295-.316.316-.758.474-1.358.474-.253 0-.505-.032-.695-.127a1.52 1.52 0 01-.505-.379 1.83 1.83 0 01-.316-.537 2.41 2.41 0 01-.095-.663c0-.094-.032-.126-.095-.126a.407.407 0 00-.316.126c-.094.095-.189.19-.284.316a1.915 1.915 0 00-.221.442 2.596 2.596 0 00-.126.474v3.38c0 .316 0 .568.031.821.032.221.063.41.158.569.063.157.19.284.316.347.126.095.316.126.537.158v.41h-6.033v-.379h.032zm15.571-4.611v-2.969c0-.158-.063-.253-.221-.316a1.263 1.263 0 00-.473-.095c-.158 0-.316.032-.506.095-.158.063-.252.158-.252.316v2.97h1.452zm-1.452.821v2.4c0 .127.031.253.126.348a.687.687 0 00.284.221c.126.064.253.095.379.127.158.031.284.063.442.063.695.063 1.327-.127 1.959-.474a6.627 6.627 0 001.674-1.453l.41.284c-.505.98-1.137 1.706-1.895 2.243-.758.505-1.642.758-2.653.758-.726 0-1.39-.095-2.021-.316a4.844 4.844 0 01-1.643-.884 4.348 4.348 0 01-1.105-1.485c-.285-.6-.411-1.263-.411-2.053 0-.726.126-1.358.411-1.958.284-.6.631-1.106 1.073-1.516a4.91 4.91 0 011.611-.98 5.812 5.812 0 011.959-.347c.726 0 1.358.127 1.926.38a4.37 4.37 0 011.453 1.041c.411.443.695.98.916 1.58.221.6.316 1.295.316 2.021h-5.211zm4.801-4.738h6.064v.411c-.442 0-.695.126-.758.347-.095.221-.063.506.032.79l1.484 4.2 1.2-3.537c.127-.442.19-.758.158-1.01-.031-.253-.094-.411-.221-.537-.095-.127-.253-.19-.41-.221-.158-.032-.285-.032-.411-.032v-.41h3.569v.41c-.316.032-.568.158-.726.347a1.7 1.7 0 00-.411.695l-2.622 7.486h-3.032l-2.527-6.728a6.65 6.65 0 00-.6-1.326c-.189-.285-.474-.474-.821-.474v-.41h.032zm14.181-4.327c.285 0 .537.032.79.095s.474.19.695.347c.189.158.379.348.505.6.127.253.19.538.19.853 0 .316-.063.6-.19.822-.126.22-.284.41-.505.568-.19.158-.442.253-.695.316a3.118 3.118 0 01-1.516 0 1.664 1.664 0 01-.663-.347 2.054 2.054 0 01-.474-.569c-.126-.221-.19-.505-.19-.821 0-.316.064-.6.19-.821.126-.222.284-.411.474-.569.189-.158.41-.253.663-.347.221-.095.474-.127.726-.127zm2.148 11.403c0 .284.032.537.063.726.064.19.127.316.221.442.095.095.19.19.316.221.127.032.285.063.443.063v.411h-6.033v-.41c.158 0 .284-.032.442-.064a.58.58 0 00.316-.22c.095-.096.158-.253.221-.443s.063-.442.063-.726v-5.117c0-.253 0-.474-.032-.664 0-.19-.063-.315-.126-.442a.565.565 0 00-.316-.284 2.01 2.01 0 00-.6-.158v-.41h4.959v7.075h.063zm6.76-3.159v-2.969c0-.158-.063-.253-.221-.316a1.268 1.268 0 00-.474-.095c-.158 0-.316.032-.506.095-.157.063-.252.158-.252.316v2.97h1.453zm-1.453.821v2.4c0 .127.031.253.126.348a.687.687 0 00.284.221c.127.064.253.095.379.127.158.031.285.063.443.063.695.063 1.326-.127 1.958-.474a6.593 6.593 0 001.674-1.453l.411.284c-.506.98-1.137 1.706-1.896 2.243-.758.505-1.642.758-2.653.758-.726 0-1.389-.095-2.021-.316a4.844 4.844 0 01-1.643-.884 4.36 4.36 0 01-1.105-1.485c-.284-.6-.411-1.263-.411-2.053 0-.726.127-1.358.411-1.958.284-.6.632-1.106 1.105-1.516a4.6 4.6 0 011.611-.98 5.812 5.812 0 011.959-.347c.726 0 1.358.127 1.926.38a4.37 4.37 0 011.453 1.041c.411.443.695.98.916 1.58.221.6.316 1.295.316 2.021h-5.243zm16.266-4.738v.411c-.442 0-.695.126-.758.347-.095.221-.063.506.032.79l1.39 4.106 1.295-3.443c.157-.41.252-.758.221-1.01-.032-.253-.095-.443-.221-.537a.757.757 0 00-.411-.221c-.158-.032-.284-.032-.411-.032v-.41h3.506v.41a1.211 1.211 0 00-.726.347c-.19.19-.348.411-.442.695l-2.717 7.486h-2.969l-1.358-4.138-1.39 4.138h-3.032l-2.432-6.728a7.694 7.694 0 00-.569-1.295c-.189-.316-.442-.473-.821-.505v-.41h5.433v.41c-.19 0-.253.126-.253.347 0 .221.063.506.158.79l1.264 4.075 1.2-3.822a1.169 1.169 0 00-.063-.98c-.158-.284-.443-.442-.916-.442v-.379h4.99zM57.802 7.896c-.253.316-.632.569-1.106.822-.505.22-1.105.347-1.832.347-.947 0-1.706-.284-2.274-.853-.6-.568-.884-1.326-.884-2.242V4.39c0-.916.284-1.674.852-2.242.569-.569 1.295-.885 2.211-.885.98 0 1.706.222 2.18.664.474.442.758 1.074.821 1.863v.032h-1.642c-.064-.41-.19-.695-.38-.916-.189-.19-.505-.316-.915-.316-.411 0-.727.158-.98.474-.252.316-.379.758-.379 1.263v1.611c0 .537.127.948.38 1.264.252.315.6.473 1.042.473.316 0 .568-.031.758-.063.19-.063.316-.126.442-.221v-1.2h-1.2V5.054h2.969v2.842h-.063zm3.285-.284h3.253V8.94h-5.022V1.36h1.769v6.253zm8.843-3.158c0-.537-.126-.98-.379-1.327a1.289 1.289 0 00-1.073-.537c-.474 0-.853.19-1.106.505-.253.348-.38.79-.38 1.327v1.39c0 .537.127 1.01.38 1.358.253.347.632.537 1.106.537.473 0 .82-.19 1.073-.537.253-.348.38-.79.38-1.358V4.454zm1.77 1.39c0 .947-.285 1.705-.885 2.305-.6.6-1.358.916-2.337.916-.98 0-1.738-.316-2.338-.916-.6-.6-.884-1.39-.884-2.306V4.485c0-.947.284-1.705.884-2.306.6-.6 1.39-.916 2.338-.916.947 0 1.737.316 2.337.916.6.6.884 1.39.884 2.306v1.358zm3-.159v1.896h1.232c.379 0 .663-.064.853-.222.19-.158.284-.379.284-.694 0-.316-.095-.569-.253-.759-.158-.157-.41-.252-.79-.252H74.7v.031zm0-1.168h.884c.411 0 .695-.095.885-.221.19-.158.284-.38.284-.664 0-.316-.095-.568-.316-.695-.19-.157-.505-.22-.916-.22h-.853v1.8h.032zM72.931 8.97V1.358h2.622c.947 0 1.674.19 2.21.537.538.348.79.885.79 1.548 0 .347-.094.695-.252.979-.158.284-.442.505-.79.632.442.094.758.316.98.6.22.316.315.663.315 1.042 0 .727-.253 1.295-.758 1.674-.505.38-1.2.569-2.148.569h-2.969v.031zm9.129-2.842h1.61l-.79-2.717h-.031l-.79 2.717zm1.99 1.358h-2.401l-.41 1.484h-1.77l2.464-7.58h1.895l2.464 7.58h-1.769l-.474-1.484zm5.148.126h3.285V8.94h-5.054V1.36h1.769v6.253zm10.96-1.927v1.896h1.232c.379 0 .663-.064.853-.222.189-.158.284-.379.284-.694 0-.316-.063-.569-.253-.759-.158-.157-.41-.252-.789-.252h-1.327v.031zm0-1.168h.884c.411 0 .695-.095.885-.221.189-.158.284-.38.284-.664 0-.316-.095-.568-.316-.695-.189-.157-.505-.22-.916-.22h-.853v1.8h.032zM98.389 8.97V1.358h2.622c.947 0 1.674.19 2.211.537.537.348.789.885.789 1.548 0 .347-.094.695-.252.979-.158.284-.442.505-.79.632.442.094.758.316.979.6.221.316.316.663.316 1.042 0 .727-.253 1.295-.758 1.674-.505.38-1.2.569-2.148.569h-2.969v.031zm9.128-2.842h1.611l-.789-2.717h-.032l-.79 2.717zm1.99 1.358h-2.4l-.411 1.484h-1.769l2.464-7.58h1.895l2.464 7.58h-1.769l-.474-1.484zm9.729 1.484h-1.769l-2.78-4.864-.031.032V8.97h-1.769V1.358h1.769l2.779 4.833h.032V1.358h1.769V8.97zm4.422-3.064h-.822V8.94h-1.768V1.36h1.768v2.968h.6l1.674-2.969h2.18l-2.337 3.443 2.558 4.138h-2.179l-1.674-3.033zm6.854-4.548h-1.769V8.97h1.769V1.358zm8.275 7.612h-1.769l-2.779-4.864-.032.032V8.97h-1.769V1.358h1.769l2.78 4.833h.031V1.358h1.769V8.97zm7.833-1.074c-.252.316-.631.569-1.105.822-.505.22-1.106.347-1.832.347-.948 0-1.706-.284-2.274-.853-.6-.568-.885-1.326-.885-2.242V4.39c0-.916.285-1.674.853-2.242.569-.569 1.327-.885 2.211-.885.979 0 1.706.222 2.18.664.473.442.758 1.074.821 1.863v.032h-1.643c-.063-.41-.189-.695-.379-.916-.189-.19-.505-.316-.916-.316-.41 0-.758.158-.979.474-.252.316-.379.758-.379 1.263v1.611c0 .537.127.948.379 1.264.253.315.6.473 1.043.473.315 0 .568-.031.758-.063a1.45 1.45 0 00.442-.221v-1.2h-1.2V5.054h2.969v2.842h-.064zm7.328-4.611c0 .126.032.284.095.41.063.158.158.285.284.474l.316-.19c.19-.126.316-.252.379-.378a.844.844 0 00.095-.38.664.664 0 00-.158-.41.51.51 0 00-.411-.19.641.641 0 00-.473.19c-.095.126-.127.284-.127.474zm.411 4.422c.158 0 .284-.032.442-.063.158-.032.284-.095.442-.158l-1.389-1.58-.064.032c-.094.126-.189.253-.221.38a1.895 1.895 0 00-.063.441c0 .253.095.474.253.664.158.19.347.284.6.284zm-1.295-2.748a6.576 6.576 0 01-.505-.853c-.127-.253-.158-.537-.158-.79 0-.6.189-1.105.6-1.484.41-.38.916-.569 1.547-.569.569 0 1.011.19 1.359.537.347.348.505.79.505 1.295 0 .348-.063.664-.221.948a2.334 2.334 0 01-.632.726l-.442.316 1.263 1.453c.127-.19.221-.41.285-.631a2.7 2.7 0 00.094-.727h1.232c0 .505-.063.948-.158 1.358-.094.41-.284.79-.537 1.106l1.137 1.326v.032h-1.926l-.379-.442c-.316.19-.6.316-.916.41-.285.095-.632.127-1.011.127-.758 0-1.358-.19-1.8-.6-.443-.411-.664-.916-.664-1.548 0-.41.095-.758.316-1.042.221-.316.569-.6 1.011-.948z" fill="#000" fill-opacity=".4"/><path d="M30.543 0v14.34h-1.958c-.158-1.516-.569-2.97-1.2-4.39-.632-1.422-1.422-2.685-2.432-3.822a12.178 12.178 0 00-3.664-2.717c-1.422-.695-3.033-1.042-4.865-1.042v15.035c1.106 0 2.054-.221 2.875-.632.79-.41 1.484-.948 2.021-1.642a7.354 7.354 0 001.232-2.433c.284-.916.474-1.895.537-2.937h1.453v18.699h-1.453c-.126-1.643-.442-3.033-.916-4.138-.474-1.106-1.042-2.022-1.705-2.748-.664-.695-1.327-1.232-2.054-1.61-.726-.348-1.358-.601-1.958-.696v12.634c0 .822.126 1.517.38 2.054.252.537.6 1.01.978 1.358.41.347.822.6 1.295.758.474.158.885.22 1.264.22v1.138H0v-1.106c.379 0 .79-.094 1.232-.252.442-.158.853-.442 1.263-.79.41-.347.727-.821.98-1.39.252-.568.378-1.263.378-2.084V5.59c0-.822-.126-1.516-.379-2.053-.252-.569-.568-1.011-.979-1.359a5.83 5.83 0 00-1.263-.758A4.899 4.899 0 000 1.137V0h30.543z" fill="#B8B8B8"/></symbol></svg>